<?xml version="1.0" encoding="UTF-8" standalone="no"?>
<!-- Created with Inkscape (http://www.inkscape.org/) -->

<svg
   width="210mm"
   height="297mm"
   viewBox="0 0 210 297"
   version="1.1"
   id="svg5"
   sodipodi:docname="adsr_icons_diff_rot.svg"
   inkscape:version="1.2.2 (b0a8486541, 2022-12-01)"
   xml:space="preserve"
   xmlns:inkscape="http://www.inkscape.org/namespaces/inkscape"
   xmlns:sodipodi="http://sodipodi.sourceforge.net/DTD/sodipodi-0.dtd"
   xmlns="http://www.w3.org/2000/svg"
   xmlns:svg="http://www.w3.org/2000/svg"><sodipodi:namedview
     id="namedview7"
     pagecolor="#ffffff"
     bordercolor="#666666"
     borderopacity="1.0"
     inkscape:pageshadow="2"
     inkscape:pageopacity="0.0"
     inkscape:pagecheckerboard="0"
     inkscape:document-units="mm"
     showgrid="false"
     inkscape:zoom="0.90583674"
     inkscape:cx="-64.029198"
     inkscape:cy="643.05186"
     inkscape:window-width="1854"
     inkscape:window-height="1011"
     inkscape:window-x="66"
     inkscape:window-y="32"
     inkscape:window-maximized="1"
     inkscape:current-layer="layer2"
     inkscape:showpageshadow="2"
     inkscape:deskcolor="#d1d1d1"
     showguides="true" /><defs
     id="defs2"><inkscape:path-effect
       effect="mirror_symmetry"
       start_point="167.47412,199.82421"
       end_point="167.47412,207.51072"
       center_point="167.47412,203.66746"
       id="path-effect4394"
       is_visible="true"
       lpeversion="1.2"
       lpesatellites=""
       mode="free"
       discard_orig_path="false"
       fuse_paths="false"
       oposite_fuse="false"
       split_items="false"
       split_open="false"
       link_styles="false" /><inkscape:path-effect
       effect="mirror_symmetry"
       start_point="167.41389,204.86826"
       end_point="167.41389,216.78946"
       center_point="167.41389,210.82886"
       id="path-effect4363"
       is_visible="true"
       lpeversion="1.2"
       lpesatellites=""
       mode="free"
       discard_orig_path="false"
       fuse_paths="false"
       oposite_fuse="true"
       split_items="false"
       split_open="false"
       link_styles="false" /><inkscape:path-effect
       effect="mirror_symmetry"
       start_point="167.52168,181.29163"
       end_point="167.52168,194.09611"
       center_point="167.52168,187.69387"
       id="path-effect4361"
       is_visible="true"
       lpeversion="1.2"
       lpesatellites=""
       mode="free"
       discard_orig_path="false"
       fuse_paths="false"
       oposite_fuse="true"
       split_items="false"
       split_open="false"
       link_styles="false" /><inkscape:path-effect
       effect="mirror_symmetry"
       start_point="167.57463,114.48427"
       end_point="167.57463,173.35511"
       center_point="167.57463,143.91969"
       id="path-effect4359"
       is_visible="true"
       lpeversion="1.2"
       lpesatellites=""
       mode="free"
       discard_orig_path="false"
       fuse_paths="false"
       oposite_fuse="true"
       split_items="false"
       split_open="false"
       link_styles="false" /><inkscape:path-effect
       effect="mirror_symmetry"
       start_point="167.57463,114.48427"
       end_point="167.57463,173.35511"
       center_point="167.57463,143.91969"
       id="path-effect4359-7"
       is_visible="true"
       lpeversion="1.2"
       lpesatellites=""
       mode="free"
       discard_orig_path="false"
       fuse_paths="false"
       oposite_fuse="true"
       split_items="false"
       split_open="false"
       link_styles="false" /><inkscape:path-effect
       effect="mirror_symmetry"
       start_point="167.41389,204.86826"
       end_point="167.41389,216.78946"
       center_point="167.41389,210.82886"
       id="path-effect4363-5"
       is_visible="true"
       lpeversion="1.2"
       lpesatellites=""
       mode="free"
       discard_orig_path="false"
       fuse_paths="false"
       oposite_fuse="true"
       split_items="false"
       split_open="false"
       link_styles="false" /><inkscape:path-effect
       effect="mirror_symmetry"
       start_point="167.52168,181.29163"
       end_point="167.52168,194.09611"
       center_point="167.52168,187.69387"
       id="path-effect4361-9"
       is_visible="true"
       lpeversion="1.2"
       lpesatellites=""
       mode="free"
       discard_orig_path="false"
       fuse_paths="false"
       oposite_fuse="true"
       split_items="false"
       split_open="false"
       link_styles="false" /><inkscape:path-effect
       effect="mirror_symmetry"
       start_point="167.47412,199.82421"
       end_point="167.47412,207.51072"
       center_point="167.47412,203.66746"
       id="path-effect4394-2"
       is_visible="true"
       lpeversion="1.2"
       lpesatellites=""
       mode="free"
       discard_orig_path="false"
       fuse_paths="false"
       oposite_fuse="false"
       split_items="false"
       split_open="false"
       link_styles="false" /></defs><g
     inkscape:label="Layer 1"
     inkscape:groupmode="layer"
     id="layer1"
     style="display:inline" /><g
     inkscape:groupmode="layer"
     id="layer3"
     inkscape:label="Attack"
     style="display:inline"><g
       id="g4547"
       transform="matrix(0.35426211,0.35426211,-0.35426211,0.35426211,71.669849,13.64345)"
       inkscape:export-filename="images/ADSR_light.png"
       inkscape:export-xdpi="96"
       inkscape:export-ydpi="96"><path
         style="fill:none;fill-opacity:1;stroke:#000000;stroke-width:2;stroke-linecap:round;stroke-linejoin:round;stroke-dasharray:none;stroke-opacity:1"
         d="m 167.59196,143.03005 c 2.09265,2.0889 4.85544,4.15738 4.85544,11.38285 v 47.44012 m -4.8901,-58.82297 c -2.09265,2.0889 -4.85544,4.15738 -4.85544,11.38285 v 47.44012"
         id="path4241"
         sodipodi:nodetypes="ccc"
         inkscape:path-effect="#path-effect4359-7"
         inkscape:original-d="m 167.59196,143.03005 c 2.09265,2.0889 4.85544,4.15738 4.85544,11.38285 v 47.44012"
         class="UnoptimicedTransforms"
         transform="matrix(1.0002988,0,0,0.99388832,23.413087,34.42265)" /><circle
         style="fill:none;fill-opacity:1;stroke:#000000;stroke-width:2;stroke-linecap:round;stroke-linejoin:round;stroke-dasharray:none;stroke-opacity:1"
         id="path4295"
         cx="190.97502"
         cy="260.76871"
         r="2.1720376" /><circle
         style="fill:none;fill-opacity:1;stroke:#000000;stroke-width:2;stroke-linecap:round;stroke-linejoin:round;stroke-dasharray:none;stroke-opacity:1"
         id="path4297"
         cx="190.97502"
         cy="260.76871"
         r="6.2878041" /><path
         style="fill:none;fill-opacity:1;stroke:#000000;stroke-width:2;stroke-linecap:round;stroke-linejoin:round;stroke-dasharray:none;stroke-opacity:1"
         d="m 195.0246,250.90078 v 4.9685"
         id="path4353" /><path
         style="fill:none;fill-opacity:1;stroke:#000000;stroke-width:2;stroke-linecap:round;stroke-linejoin:round;stroke-dasharray:none;stroke-opacity:1"
         d="m 187.02848,250.88685 v 4.9685"
         id="path4353-3" /><path
         style="fill:none;fill-opacity:1;stroke:#000000;stroke-width:2;stroke-linecap:round;stroke-linejoin:round;stroke-dasharray:none;stroke-opacity:1"
         d="m 167.43646,217.51157 h 4.09607 c 1.05889,0.012 1.91018,-0.7569 1.91018,-1.79356 v -10.1275 h -6.03125 m -0.0201,11.92106 h -4.09607 c -1.05889,0.012 -1.91018,-0.7569 -1.91018,-1.79356 v -10.1275 h 6.03125"
         id="path4355"
         sodipodi:nodetypes="ccccc"
         inkscape:path-effect="#path-effect4363-5"
         inkscape:original-d="m 167.43646,217.51157 h 4.09607 c 1.05889,0.012 1.91018,-0.7569 1.91018,-1.79356 v -10.1275 h -6.03125"
         class="UnoptimicedTransforms"
         transform="translate(23.552969,33.346657)" /><path
         style="fill:none;fill-opacity:1;stroke:#000000;stroke-width:2;stroke-linecap:round;stroke-linejoin:round;stroke-dasharray:none;stroke-opacity:1"
         d="m 167.43286,183.05137 c 2.24978,2.60839 5.01435,5.00087 5.01435,12.80449 m -4.83671,-12.80449 c -2.24978,2.60839 -5.01435,5.00087 -5.01435,12.80449"
         id="path4357"
         sodipodi:nodetypes="cc"
         inkscape:path-effect="#path-effect4361-9"
         inkscape:original-d="m 167.43286,183.05137 c 2.24978,2.60839 5.01435,5.00087 5.01435,12.80449"
         class="UnoptimicedTransforms"
         transform="matrix(0.98813246,0,0,1.0001326,25.499115,33.525133)" /><path
         style="fill:none;fill-opacity:1;stroke:#000000;stroke-width:2;stroke-linecap:round;stroke-linejoin:round;stroke-dasharray:none;stroke-opacity:1"
         d="m 162.82158,201.60175 h -11.40703 c -2.51943,0.008 -3.28132,-0.70315 -4.6478,-1.8372 v 7.68651 c 1.23195,-1.26021 2.59177,-2.04327 4.46327,-2.04327 m 20.89664,-3.80604 h 11.40703 c 2.51943,0.008 3.28132,-0.70315 4.6478,-1.8372 v 7.68651 c -1.23195,-1.26021 -2.59177,-2.04327 -4.46327,-2.04327"
         id="path4392"
         sodipodi:nodetypes="ccccc"
         inkscape:path-effect="#path-effect4394-2"
         inkscape:original-d="m 162.82158,201.60175 h -11.40703 c -2.51943,0.008 -3.28132,-0.70315 -4.6478,-1.8372 v 7.68651 c 1.23195,-1.26021 2.59177,-2.04327 4.46327,-2.04327"
         class="UnoptimicedTransforms"
         transform="translate(23.572472,33.550245)" /><path
         style="fill:none;fill-opacity:1;stroke:#000000;stroke-width:2;stroke-linecap:round;stroke-linejoin:round;stroke-dasharray:none;stroke-opacity:1"
         d="m 174.74554,238.94494 h 10.06523"
         id="path4396" /><path
         style="fill:none;fill-opacity:1;stroke:#000000;stroke-width:2;stroke-linecap:round;stroke-linejoin:round;stroke-dasharray:none;stroke-opacity:1"
         d="m 207.39077,238.94761 h -6.64658"
         id="path4398" /><path
         style="fill:none;fill-opacity:1;stroke:#000000;stroke-width:2;stroke-linecap:round;stroke-linejoin:round;stroke-dasharray:none;stroke-opacity:1"
         d="M 184.97738,243.06779 H 196.9355"
         id="path4400" /><path
         style="fill:none;fill-opacity:1;stroke:#000000;stroke-width:2;stroke-linecap:round;stroke-linejoin:round;stroke-dasharray:none;stroke-opacity:1"
         d="m 184.97759,247.00008 h 11.88924"
         id="path4402" /><path
         style="fill:none;fill-opacity:1;stroke:#000000;stroke-width:2;stroke-linecap:round;stroke-linejoin:round;stroke-dasharray:none;stroke-opacity:1"
         d="m 186.13495,235.1742 h 9.83038"
         id="path4404" /><path
         style="fill:none;fill-opacity:1;stroke:#000000;stroke-width:1.98587;stroke-linecap:round;stroke-linejoin:round;stroke-dasharray:none;stroke-opacity:1"
         d="M 191.00467,216.80637 V 177.51294"
         id="path4406" /></g></g><g
     inkscape:groupmode="layer"
     id="layer4"
     inkscape:label="Decay"
     style="display:inline"><path
       id="path3696-3"
       style="fill:#000000;fill-opacity:1;stroke:none;stroke-width:0.0620051;stroke-linecap:round;stroke-linejoin:round;stroke-miterlimit:4;stroke-dasharray:none;stroke-opacity:1"
       d="m 108.28419,149.40185 a 7.8332363,15.707242 60 0 0 -11.99634,3.58933 7.8332363,15.707242 60 0 0 -9.6865,14.63719 7.8332363,15.707242 60 0 0 0.233496,0.35646 3.1945215,3.1945215 0 0 1 0.79831,-1.19585 7.1858783,14.409156 60 0 1 8.978332,-13.23741 7.1858783,14.409156 60 0 1 16.071572,-0.98128 7.1858783,14.409156 60 0 1 -8.88582,13.42776 7.1858783,14.409156 60 0 1 -10.78689,3.29346 3.1945215,3.1945215 0 0 1 -0.166997,0.85536 7.8332363,15.707242 60 0 0 11.277517,-3.58813 7.8332363,15.707242 60 0 0 9.68621,-14.6375 7.8332363,15.707242 60 0 0 -5.52289,-2.51939 z" /><path
       id="path3696-8-6"
       style="fill:#000000;fill-opacity:1;stroke:none;stroke-width:0.0620051;stroke-linecap:round;stroke-linejoin:round;stroke-miterlimit:4;stroke-dasharray:none;stroke-opacity:1"
       d="m 100.20408,144.06782 a 7.8332363,15.707242 0 0 0 -0.859205,0.10347 3.1945215,3.1945215 0 0 1 0.763735,1.20117 7.1858783,14.409156 0 0 1 0.0954,-0.007 7.1858783,14.409156 0 0 1 7.18603,14.40932 7.1858783,14.409156 0 0 1 -7.18603,14.40903 7.1858783,14.409156 0 0 1 -7.185732,-14.40903 7.1858783,14.409156 0 0 1 2.35179,-10.65004 3.1945215,3.1945215 0 0 1 -0.649349,-0.55477 7.8332363,15.707242 0 0 0 -2.349736,11.20481 7.8332363,15.707242 0 0 0 7.833027,15.70714 7.8332363,15.707242 0 0 0 7.83332,-15.70714 7.8332363,15.707242 0 0 0 -7.83332,-15.70714 z" /><path
       id="path3696-8-8-0"
       style="fill:#000000;fill-opacity:1;stroke:none;stroke-width:0.0620051;stroke-linecap:round;stroke-linejoin:round;stroke-miterlimit:4;stroke-dasharray:none;stroke-opacity:1"
       d="m 92.12396,149.40186 a 15.707242,7.8332363 30 0 0 -5.52261,2.51968 15.707242,7.8332363 30 0 0 9.686213,14.6372 15.707242,7.8332363 30 0 0 11.388347,3.58696 l -0.51516,-0.85449 a 14.409156,7.1858783 30 0 1 -10.549548,-3.29317 14.409156,7.1858783 30 0 1 -8.88583,-13.42744 14.409156,7.1858783 30 0 1 16.071868,0.98097 14.409156,7.1858783 30 0 1 8.88552,13.42804 14.409156,7.1858783 30 0 1 -0.36148,0.50631 l 0.94019,0.86451 a 15.707242,7.8332363 30 0 0 0.54562,-0.72176 15.707242,7.8332363 30 0 0 -9.68651,-14.63749 15.707242,7.8332363 30 0 0 -11.99662,-3.58932 z" /><path
       id="path3881-7-6"
       style="fill:#000000;fill-opacity:1;stroke:none;stroke-width:0.537094;stroke-linecap:round;stroke-linejoin:round;stroke-miterlimit:4;stroke-dasharray:none;stroke-opacity:1"
       d="m 103.7554,158.86008 a 3.3808682,3.3808682 0 0 1 -2.652,2.3589 3.3341965,3.3341965 0 0 1 -1.201048,2.20216 2.9998347,2.9998347 0 0 0 2.153148,0.90164 2.9998347,2.9998347 0 0 0 2.98829,-2.99995 v -0.0451 a 2.9998347,2.9998347 0 0 0 -1.28839,-2.41762 z" /><path
       id="path3881-6-1"
       style="fill:#000000;fill-opacity:1;stroke:none;stroke-width:0.555936;stroke-linecap:round;stroke-linejoin:round;stroke-miterlimit:4;stroke-dasharray:none;stroke-opacity:1"
       d="m 100.35496,154.54571 a 3.1050714,3.1050714 0 0 0 -3.043401,2.71791 3.4511628,3.4511628 0 0 1 0.220507,-0.01 3.4511628,3.4511628 0 0 1 3.489434,3.39902 l 5.1e-4,0.0352 a 3.1050714,3.1050714 0 0 0 2.47329,-3.03737 l -5e-4,-0.0467 a 3.1050714,3.1050714 0 0 0 -3.13984,-3.05796 z" /><path
       style="fill:#000000;fill-opacity:1;stroke:none;stroke-width:0.21617;stroke-linecap:round;stroke-linejoin:round;stroke-miterlimit:4;stroke-dasharray:none;stroke-opacity:1"
       id="path4070-8"
       sodipodi:type="arc"
       sodipodi:cx="-97.100578"
       sodipodi:cy="-146.44188"
       sodipodi:rx="2.5643167"
       sodipodi:ry="2.5643167"
       sodipodi:start="0"
       sodipodi:end="6.2681406"
       sodipodi:open="true"
       sodipodi:arc-type="arc"
       d="m -94.536262,-146.44188 a 2.5643167,2.5643167 0 0 1 -2.554671,2.5643 2.5643167,2.5643167 0 0 1 -2.57389,-2.54501 2.5643167,2.5643167 0 0 1 2.535311,-2.58344 2.5643167,2.5643167 0 0 1 2.59296,2.52557"
       transform="scale(-1)" /><path
       style="fill:#000000;fill-opacity:1;stroke:none;stroke-width:0.541801;stroke-linecap:round;stroke-linejoin:round;stroke-miterlimit:4;stroke-dasharray:none;stroke-opacity:1"
       id="path3881-62"
       sodipodi:type="arc"
       sodipodi:cx="97.489197"
       sodipodi:cy="160.79324"
       sodipodi:rx="3.026124"
       sodipodi:ry="3.026124"
       sodipodi:start="0"
       sodipodi:end="6.2681406"
       sodipodi:open="true"
       sodipodi:arc-type="arc"
       d="m 100.51532,160.79324 a 3.026124,3.026124 0 0 1 -3.014741,3.02611 3.026124,3.026124 0 0 1 -3.037421,-3.00334 3.026124,3.026124 0 0 1 2.991894,-3.0487 3.026124,3.026124 0 0 1 3.059928,2.98041" /><path
       style="fill:#000000;fill-opacity:1;stroke:none;stroke-width:0.21617;stroke-linecap:round;stroke-linejoin:round;stroke-miterlimit:4;stroke-dasharray:none;stroke-opacity:1"
       id="path4070-4-7"
       sodipodi:type="arc"
       sodipodi:cx="-89.822411"
       sodipodi:cy="-169.11504"
       sodipodi:rx="2.5643167"
       sodipodi:ry="2.5643167"
       sodipodi:start="0"
       sodipodi:end="6.2681406"
       sodipodi:open="true"
       sodipodi:arc-type="arc"
       transform="scale(-1)"
       d="m -87.258094,-169.11504 a 2.5643167,2.5643167 0 0 1 -2.554672,2.5643 2.5643167,2.5643167 0 0 1 -2.573889,-2.54501 2.5643167,2.5643167 0 0 1 2.53531,-2.58344 2.5643167,2.5643167 0 0 1 2.592961,2.52558" /><path
       style="fill:#000000;fill-opacity:1;stroke:none;stroke-width:0.21617;stroke-linecap:round;stroke-linejoin:round;stroke-miterlimit:4;stroke-dasharray:none;stroke-opacity:1"
       id="path4070-0-9"
       sodipodi:type="arc"
       sodipodi:cx="-99.45092"
       sodipodi:cy="-181.68747"
       sodipodi:rx="2.5643167"
       sodipodi:ry="2.5643167"
       sodipodi:start="0"
       sodipodi:end="6.2681406"
       sodipodi:open="true"
       sodipodi:arc-type="arc"
       transform="rotate(175.33771)"
       d="m -96.886603,-181.68747 a 2.5643167,2.5643167 0 0 1 -2.554672,2.5643 2.5643167,2.5643167 0 0 1 -2.573885,-2.54501 2.5643167,2.5643167 0 0 1 2.535306,-2.58344 2.5643167,2.5643167 0 0 1 2.59296,2.52557" /><path
       id="path4717-2"
       style="fill:#000000;fill-opacity:1;fill-rule:evenodd;stroke:none;stroke-width:0.144258px;stroke-linecap:butt;stroke-linejoin:miter;stroke-opacity:1"
       d="m 107.84447,168.25255 -0.56426,0.54984 3.41842,4.29987 a 3.1945215,3.1945215 0 0 1 0.34441,-1.54402 z" /><path
       id="path4717-0-0"
       style="fill:#000000;fill-opacity:1;fill-rule:evenodd;stroke:none;stroke-width:0.141477px;stroke-linecap:butt;stroke-linejoin:miter;stroke-opacity:1"
       d="m 108.56816,166.69035 -0.53968,0.55318 3.26632,3.90007 a 3.1945215,3.1945215 0 0 1 0.92737,-0.86444 z" /><path
       id="path4717-0-9-2"
       style="fill:#000000;fill-opacity:1;fill-rule:evenodd;stroke:none;stroke-width:0.137852px;stroke-linecap:butt;stroke-linejoin:miter;stroke-opacity:1"
       d="m 110.29846,166.23905 -0.46644,0.58576 2.87796,3.21056 a 3.1945215,3.1945215 0 0 1 0.88436,-0.21358 3.1945215,3.1945215 0 0 1 0.5918,0.002 z" /></g><g
     inkscape:groupmode="layer"
     id="layer5"
     inkscape:label="Sustain"
     style="display:inline"><path
       id="path4720-9-6-7"
       style="fill:none;fill-opacity:1;stroke:#000000;stroke-width:0.6;stroke-linecap:round;stroke-linejoin:round;stroke-dasharray:none;stroke-opacity:1"
       d="m 54.217362,181.37653 a 10.123182,10.123183 0 0 0 8.203634,4.20284 10.123182,10.123183 0 0 0 2.005562,-0.20516 10.123182,10.123183 0 0 1 1.328602,-3.99768 z" /><path
       id="path4718-7-1-8"
       style="fill:none;fill-opacity:1;stroke:#000000;stroke-width:0.6;stroke-linecap:round;stroke-linejoin:round;stroke-dasharray:none;stroke-opacity:1"
       d="m 58.274996,181.37653 a 7.2308445,7.2308459 0 0 0 4.146,1.31051 7.2308445,7.2308459 0 0 0 2.980697,-0.65112 10.123182,10.123183 0 0 1 0.353467,-0.65939 z" /><path
       id="path4720-9-6"
       style="fill:none;fill-opacity:1;stroke:#000000;stroke-width:0.6;stroke-linecap:round;stroke-linejoin:round;stroke-dasharray:none;stroke-opacity:1"
       d="m 62.07218,188.46602 a 10.123182,10.123183 0 0 0 -8.700761,4.95835 13.01552,13.01552 0 0 1 5.182113,9.07076 13.01552,13.01552 0 0 1 7.458976,2.38642 7.2308445,7.2308459 0 0 0 -0.03152,0.0419 7.2308445,7.2308459 0 0 1 2.425174,-1.95595 7.2308445,7.2308459 0 0 0 -0.373103,0.19223 15.907858,15.907858 0 0 1 3.970817,-6.49107 10.123182,10.123183 0 0 0 -0.07286,-0.37776 10.123182,10.123183 0 0 1 -7.299296,-7.49567 10.123182,10.123183 0 0 0 -2.559534,-0.32917 z m 8.158675,13.88132 a 7.2308445,7.2308459 0 0 0 -0.594279,0.14159 7.2308445,7.2308459 0 0 1 0.594279,-0.14159 z m -11.731583,0.14573 a 13.01552,13.01552 0 0 0 -0.892452,0.032 13.01552,13.01552 0 0 1 0.892452,-0.032 z m 11.114567,0.003 a 7.2308445,7.2308459 0 0 0 -0.583427,0.19585 7.2308445,7.2308459 0 0 1 0.583427,-0.19585 z m -12.02924,0.031 a 13.01552,13.01552 0 0 0 -0.866097,0.0904 13.01552,13.01552 0 0 1 0.866097,-0.0904 z m -0.894519,0.0951 a 13.01552,13.01552 0 0 0 -0.845427,0.14779 13.01552,13.01552 0 0 1 0.845427,-0.14779 z m 12.318628,0.0785 a 7.2308445,7.2308459 0 0 0 -0.557589,0.24339 7.2308445,7.2308459 0 0 1 0.557589,-0.24339 z m -13.22555,0.0837 a 13.01552,13.01552 0 0 0 -0.811836,0.20051 13.01552,13.01552 0 0 1 0.811836,-0.20051 z m -0.843359,0.20981 a 13.01552,13.01552 0 0 0 -0.816488,0.262 13.01552,13.01552 0 0 1 0.816488,-0.262 z m -0.854728,0.27647 a 13.01552,13.01552 0 0 0 -0.804602,0.32091 13.01552,13.01552 0 0 1 0.804602,-0.32091 z m 11.754321,1.84278 a 7.2308445,7.2308459 0 0 0 -0.235128,0.32504 7.2308445,7.2308459 0 0 1 0.235128,-0.32504 z m -0.337447,0.49041 a 7.2308445,7.2308459 0 0 0 -0.227893,0.38189 7.2308445,7.2308459 0 0 1 0.227893,-0.38189 z m -0.297139,0.51883 a 7.2308445,7.2308459 0 0 0 -0.212907,0.44132 7.2308445,7.2308459 0 0 1 0.212907,-0.44132 z m -0.255799,0.54725 a 7.2308445,7.2308459 0 0 0 -0.185001,0.48834 7.2308445,7.2308459 0 0 1 0.185001,-0.48834 z m -0.215491,0.58653 a 7.2308445,7.2308459 0 0 0 -0.144694,0.5178 7.2308445,7.2308459 0 0 1 0.144694,-0.5178 z m -0.16123,0.59273 a 7.2308445,7.2308459 0 0 0 -0.104903,0.55965 7.2308445,7.2308459 0 0 1 0.104903,-0.55965 z" /><path
       id="path4718-7-1"
       style="fill:none;fill-opacity:1;stroke:#000000;stroke-width:0.6;stroke-linecap:round;stroke-linejoin:round;stroke-dasharray:none;stroke-opacity:1"
       d="m 62.07218,191.35835 a 7.2308445,7.2308459 0 0 0 -6.519499,4.11396 13.01552,13.01552 0 0 1 3.000851,7.02282 13.01552,13.01552 0 0 1 7.279659,2.26705 7.2308445,7.2308459 0 0 0 3.470072,-6.17327 7.2308445,7.2308459 0 0 0 -7.231083,-7.23056 z m -3.572908,11.13472 a 13.01552,13.01552 0 0 0 -0.781865,0.0253 13.01552,13.01552 0 0 1 0.781865,-0.0253 z m -0.837675,0.0294 a 13.01552,13.01552 0 0 0 -0.730705,0.0677 13.01552,13.01552 0 0 1 0.730705,-0.0677 z m -0.772046,0.0739 a 13.01552,13.01552 0 0 0 -0.745174,0.11524 13.01552,13.01552 0 0 1 0.745174,-0.11524 z" /><circle
       style="fill:none;fill-opacity:1;stroke:#000000;stroke-width:0.6;stroke-linecap:round;stroke-linejoin:round;stroke-dasharray:none;stroke-opacity:1"
       id="path4716-3-55"
       cx="62.072392"
       cy="198.589"
       r="4.3385077" /><circle
       style="fill:none;fill-opacity:1;stroke:#000000;stroke-width:0.6;stroke-linecap:round;stroke-linejoin:round;stroke-dasharray:none;stroke-opacity:1"
       id="path4714-6-4"
       cx="62.072392"
       cy="198.589"
       r="1.4461689" /><path
       id="path4722-8-6-8"
       style="fill:none;fill-opacity:1;stroke:#000000;stroke-width:0.6;stroke-linecap:round;stroke-linejoin:round;stroke-dasharray:none;stroke-opacity:1"
       d="m 79.641134,195.20462 a 10.123182,10.123183 0 0 1 -5.156275,1.41594 10.123182,10.123183 0 0 1 -2.186946,-0.24443 15.907858,15.907858 0 0 0 -4.264856,6.78356 7.2308445,7.2308459 0 0 1 3.584277,-0.95239 7.2308445,7.2308459 0 0 1 7.230566,7.23056 7.2308445,7.2308459 0 0 1 -7.230566,7.23109 7.2308445,7.2308459 0 0 1 -0.159163,-0.007 13.01552,13.01552 0 0 1 -0.269235,1.70016 15.907858,15.907858 0 0 0 2.468067,2.30941 h 5.984131 z" /><path
       id="path4722-8-6"
       style="fill:none;fill-opacity:1;stroke:#000000;stroke-width:0.6;stroke-linecap:round;stroke-linejoin:round;stroke-dasharray:none;stroke-opacity:1"
       d="m 79.641134,195.44388 a 13.01552,13.01552 0 0 0 -8.115784,6.76755 7.2308445,7.2308459 0 0 1 0.09198,-0.004 7.2308445,7.2308459 0 0 1 7.230566,7.23056 7.2308445,7.2308459 0 0 1 -5.495788,7.01508 13.01552,13.01552 0 0 0 6.289022,4.01526 z" /><path
       id="path4720-9-1"
       style="fill:none;fill-opacity:1;stroke:#000000;stroke-width:0.6;stroke-linecap:round;stroke-linejoin:round;stroke-dasharray:none;stroke-opacity:1"
       d="m 79.641134,198.48349 a 10.123182,10.123183 0 0 0 -5.148523,4.32067 7.2308445,7.2308459 0 0 1 4.355289,6.6337 7.2308445,7.2308459 0 0 1 -2.778125,5.69474 10.123182,10.123183 0 0 0 3.571359,2.29651 z" /><path
       id="path4718-7-0"
       style="fill:none;fill-opacity:1;stroke:#000000;stroke-width:0.6;stroke-linecap:round;stroke-linejoin:round;stroke-dasharray:none;stroke-opacity:1"
       d="m 79.641134,201.66366 a 7.2308445,7.2308459 0 0 0 -2.770891,2.80603 7.2308445,7.2308459 0 0 1 1.977657,4.96817 7.2308445,7.2308459 0 0 1 -0.89917,3.48661 7.2308445,7.2308459 0 0 0 1.692404,1.32447 z" /><path
       id="path4722"
       style="fill:none;fill-opacity:1;stroke:#000000;stroke-width:0.6;stroke-linecap:round;stroke-linejoin:round;stroke-dasharray:none;stroke-opacity:1"
       d="m 43.331205,191.05966 a 13.01552,13.01552 0 0 0 -2.985347,0.91467 v 14.50144 a 10.123182,10.123183 0 0 1 6.131408,4.04523 13.01552,13.01552 0 0 1 12.022006,-8.02793 13.01552,13.01552 0 0 1 0.05426,0.002 13.01552,13.01552 0 0 0 -5.651851,-9.41131 7.2308445,7.2308459 0 0 1 -3.688147,1.01234 7.2308445,7.2308459 0 0 1 -5.882329,-3.0365 z m 2.85409,20.2432 a 13.01552,13.01552 0 0 0 -0.01809,0.0543 13.01552,13.01552 0 0 1 0.01809,-0.0543 z m -0.238229,0.77825 a 13.01552,13.01552 0 0 0 -0.02532,0.0909 13.01552,13.01552 0 0 1 0.02532,-0.0909 z m -0.341064,1.66915 a 13.01552,13.01552 0 0 0 -0.01964,0.1571 13.01552,13.01552 0 0 1 0.01964,-0.1571 z m -0.0832,0.79478 a 13.01552,13.01552 0 0 0 -0.01344,0.18087 13.01552,13.01552 0 0 1 0.01344,-0.18087 z m -0.0155,1.62368 a 13.01552,13.01552 0 0 0 0.05839,0.709 13.01552,13.01552 0 0 1 -0.05839,-0.709 z" /><path
       id="path4720"
       style="fill:none;fill-opacity:1;stroke:#000000;stroke-width:0.6;stroke-linecap:round;stroke-linejoin:round;stroke-dasharray:none;stroke-opacity:1"
       d="m 45.618404,193.74115 a 10.123182,10.123183 0 0 0 -5.272546,1.48879 v 11.24583 a 10.123182,10.123183 0 0 1 6.133475,4.04833 13.01552,13.01552 0 0 0 -0.08216,0.21446 13.01552,13.01552 0 0 1 9.282638,-7.92975 10.123182,10.123183 0 0 0 -10.061402,-9.06766 z m 0.679028,17.25837 a 13.01552,13.01552 0 0 0 -0.134875,0.38034 13.01552,13.01552 0 0 1 0.134875,-0.38034 z m -0.219108,0.64441 a 13.01552,13.01552 0 0 0 -0.118339,0.39481 13.01552,13.01552 0 0 1 0.118339,-0.39481 z m -0.175699,0.61805 a 13.01552,13.01552 0 0 0 -0.110071,0.447 13.01552,13.01552 0 0 1 0.110071,-0.447 z m -0.128158,0.53588 a 13.01552,13.01552 0 0 0 -0.198438,1.18804 13.01552,13.01552 0 0 1 0.198438,-1.18804 z" /><path
       id="path4718"
       style="fill:none;fill-opacity:1;stroke:#000000;stroke-width:0.6;stroke-linecap:round;stroke-linejoin:round;stroke-dasharray:none;stroke-opacity:1"
       d="m 45.618404,196.63348 a 7.2308445,7.2308459 0 0 0 -5.272546,2.28461 v 7.55768 a 10.123182,10.123183 0 0 1 6.133475,4.04833 13.01552,13.01552 0 0 0 -0.208772,0.54105 13.01552,13.01552 0 0 1 6.575309,-7.27604 7.2308445,7.2308459 0 0 0 -7.227466,-7.15563 z" /><circle
       style="fill:none;fill-opacity:1;stroke:#000000;stroke-width:0.6;stroke-linecap:round;stroke-linejoin:round;stroke-dasharray:none;stroke-opacity:1"
       id="path4716"
       cx="45.618496"
       cy="203.8642"
       r="4.3385077" /><circle
       style="fill:none;fill-opacity:1;stroke:#000000;stroke-width:0.6;stroke-linecap:round;stroke-linejoin:round;stroke-dasharray:none;stroke-opacity:1"
       id="path4714"
       cx="45.618496"
       cy="203.8642"
       r="1.4461689" /><path
       id="path4722-8"
       style="fill:none;fill-opacity:1;stroke:#000000;stroke-width:0.6;stroke-linecap:round;stroke-linejoin:round;stroke-dasharray:none;stroke-opacity:1"
       d="m 58.499272,202.49307 a 13.01552,13.01552 0 0 0 -13.015743,13.01522 13.01552,13.01552 0 0 0 1.077453,5.16299 h 23.876062 a 13.01552,13.01552 0 0 0 1.021127,-4.00957 7.2308445,7.2308459 0 0 1 -7.07192,-7.22385 7.2308445,7.2308459 0 0 1 1.626257,-4.55631 13.01552,13.01552 0 0 0 -7.513236,-2.38848 z" /><path
       id="path4722-8-5"
       style="display:inline;fill:none;fill-opacity:1;stroke:#000000;stroke-width:0.6;stroke-linecap:round;stroke-linejoin:round;stroke-dasharray:none;stroke-opacity:1"
       d="M 64.369305 186.16051 A 10.123182 10.123183 0 0 1 64.387801 185.82483 A 13.01552 13.01552 0 0 0 61.879944 185.57524 L 61.879944 185.57524 A 13.01552 13.01552 0 0 0 56.439449 186.76793 A 7.2308445 7.2308459 0 0 1 56.442208 186.82218 " /><path
       id="path4720-9"
       style="fill:none;fill-opacity:1;stroke:#000000;stroke-width:0.6;stroke-linecap:round;stroke-linejoin:round;stroke-dasharray:none;stroke-opacity:1"
       d="m 58.499272,205.3854 a 10.123182,10.123183 0 0 0 -10.123413,10.12289 10.123182,10.123183 0 0 0 1.420068,5.16299 h 17.406689 a 10.123182,10.123183 0 0 0 1.404566,-4.66328 7.2308445,7.2308459 0 0 1 -4.220931,-6.57014 7.2308445,7.2308459 0 0 1 0.274918,-1.95492 10.123182,10.123183 0 0 0 -6.161897,-2.09754 z" /><path
       id="path4718-7"
       style="fill:none;fill-opacity:1;stroke:#000000;stroke-width:0.6;stroke-linecap:round;stroke-linejoin:round;stroke-dasharray:none;stroke-opacity:1"
       d="m 58.499272,208.27773 a 7.2308445,7.2308459 0 0 0 -7.231084,7.23056 7.2308445,7.2308459 0 0 0 2.174545,5.16299 h 10.112561 a 7.2308445,7.2308459 0 0 0 2.174544,-5.16299 7.2308445,7.2308459 0 0 0 -7.230566,-7.23056 z" /><circle
       style="fill:none;fill-opacity:1;stroke:#000000;stroke-width:0.6;stroke-linecap:round;stroke-linejoin:round;stroke-dasharray:none;stroke-opacity:1"
       id="path4716-3"
       cx="58.499184"
       cy="215.50853"
       r="4.3385077" /><circle
       style="fill:none;fill-opacity:1;stroke:#000000;stroke-width:0.6;stroke-linecap:round;stroke-linejoin:round;stroke-dasharray:none;stroke-opacity:1"
       id="path4714-6"
       cx="58.499184"
       cy="215.50853"
       r="1.4461689" /><path
       id="path4720-9-8"
       style="fill:none;fill-opacity:1;stroke:#000000;stroke-width:0.6;stroke-linecap:round;stroke-linejoin:round;stroke-dasharray:none;stroke-opacity:1"
       d="m 40.345858,206.47577 v 14.19551 h 6.215124 a 13.01552,13.01552 0 0 1 -1.077453,-5.16299 13.01552,13.01552 0 0 1 0.995804,-4.98419 10.123182,10.123183 0 0 0 -6.133475,-4.04833 z" /><path
       id="path4718-7-4"
       style="fill:none;fill-opacity:1;stroke:#000000;stroke-width:0.6;stroke-linecap:round;stroke-linejoin:round;stroke-dasharray:none;stroke-opacity:1"
       d="m 40.345858,209.46112 v 11.21016 h 3.688663 a 7.2308445,7.2308459 0 0 0 1.422136,-4.29741 7.2308445,7.2308459 0 0 0 -5.110799,-6.91275 z" /><path
       id="path4716-3-5"
       style="fill:none;fill-opacity:1;stroke:#000000;stroke-width:0.6;stroke-linecap:round;stroke-linejoin:round;stroke-dasharray:none;stroke-opacity:1"
       d="m 40.345858,212.58909 v 7.56801 a 4.3385077,4.3385077 0 0 0 2.218469,-3.78323 4.3385077,4.3385077 0 0 0 -2.218469,-3.78478 z" /><path
       id="path4720-9-8-4"
       style="fill:none;fill-opacity:1;stroke:#000000;stroke-width:0.6;stroke-linecap:round;stroke-linejoin:round;stroke-dasharray:none;stroke-opacity:1"
       d="m 65.75516,181.37653 a 10.123182,10.123183 0 0 0 -1.393197,5.12061 10.123182,10.123183 0 0 0 10.122896,10.12342 10.123182,10.123183 0 0 0 5.156275,-1.41594 v -13.82809 z" /><path
       id="path4718-7-4-7"
       style="fill:none;fill-opacity:1;stroke:#000000;stroke-width:0.6;stroke-linecap:round;stroke-linejoin:round;stroke-dasharray:none;stroke-opacity:1"
       d="m 69.386979,181.37653 a 7.2308445,7.2308459 0 0 0 -2.132686,5.12061 7.2308445,7.2308459 0 0 0 7.230566,7.23109 7.2308445,7.2308459 0 0 0 5.156275,-2.16886 V 181.4282 a 7.2308445,7.2308459 0 0 0 -0.05168,-0.0517 z" /><circle
       style="fill:none;fill-opacity:1;stroke:#000000;stroke-width:0.6;stroke-linecap:round;stroke-linejoin:round;stroke-dasharray:none;stroke-opacity:1"
       id="path4716-3-5-4"
       cx="74.484894"
       cy="186.49718"
       r="4.3385077" /><circle
       style="fill:none;fill-opacity:1;stroke:#000000;stroke-width:0.6;stroke-linecap:round;stroke-linejoin:round;stroke-dasharray:none;stroke-opacity:1"
       id="path4714-6-0-4"
       cx="74.484894"
       cy="186.49718"
       r="1.4461689" /><path
       id="path4720-9-8-4-6"
       style="fill:none;fill-opacity:1;stroke:#000000;stroke-width:0.6;stroke-linecap:round;stroke-linejoin:round;stroke-dasharray:none;stroke-opacity:1"
       d="m 40.345858,181.37653 v 9.42939 a 10.123182,10.123183 0 0 0 1.734261,-5.66373 10.123182,10.123183 0 0 0 -0.727088,-3.76566 z" /><ellipse
       style="fill:none;fill-opacity:1;stroke:#000000;stroke-width:0.6;stroke-linecap:round;stroke-linejoin:round;stroke-dasharray:none;stroke-opacity:1"
       id="path4718-7-3"
       cx="71.617233"
       cy="209.43806"
       rx="7.2308445"
       ry="7.2308459" /><circle
       style="fill:none;fill-opacity:1;stroke:#000000;stroke-width:0.6;stroke-linecap:round;stroke-linejoin:round;stroke-dasharray:none;stroke-opacity:1"
       id="path4716-3-1"
       cx="71.617233"
       cy="209.43806"
       r="4.3385077" /><circle
       style="fill:none;fill-opacity:1;stroke:#000000;stroke-width:0.6;stroke-linecap:round;stroke-linejoin:round;stroke-dasharray:none;stroke-opacity:1"
       id="path4714-6-9"
       cx="71.617233"
       cy="209.43806"
       r="1.4461689" /><path
       id="path4718-7-3-6"
       style="fill:none;fill-opacity:1;stroke:#000000;stroke-width:0.6;stroke-linecap:round;stroke-linejoin:round;stroke-dasharray:none;stroke-opacity:1"
       d="m 44.513562,181.37653 a 7.2308445,7.2308459 0 0 0 -2.531112,5.48855 7.2308445,7.2308459 0 0 0 7.231084,7.23108 7.2308445,7.2308459 0 0 0 7.230566,-7.23108 7.2308445,7.2308459 0 0 0 -2.524394,-5.48855 z" /><circle
       style="fill:none;fill-opacity:1;stroke:#000000;stroke-width:0.6;stroke-linecap:round;stroke-linejoin:round;stroke-dasharray:none;stroke-opacity:1"
       id="path4716-3-1-5"
       cx="49.213375"
       cy="186.86531"
       r="4.3385077" /><circle
       style="fill:none;fill-opacity:1;stroke:#000000;stroke-width:0.6;stroke-linecap:round;stroke-linejoin:round;stroke-dasharray:none;stroke-opacity:1"
       id="path4714-6-9-6"
       cx="49.213375"
       cy="186.86531"
       r="1.4461689" /></g><g
     inkscape:groupmode="layer"
     id="layer6"
     inkscape:label="Release"
     style="display:inline"><path
       style="fill:#000000;fill-opacity:1;stroke:#000000;stroke-width:0.5;stroke-dasharray:none;stroke-opacity:1"
       d="m 94.862296,203.33323 c 0.46597,-0.40013 3.41181,-2.03747 6.703844,-3.5937 1.63628,-0.24619 1.96351,-0.061 2.71277,-0.015 0.40926,0.15857 0.55327,-1.9279 0.78319,-2.30776 0.76583,-1.56594 1.13581,-1.32678 2.66823,-4.03407 0.34312,-0.58574 0.67326,-1.12926 1.00859,-1.68962 l 0.28784,-0.12474 c -0.0991,0.98664 -0.41925,1.6008 -1.35242,3.90464 -0.21594,0.5064 -0.60141,1.01077 -1.04642,1.69138 -0.13879,0.20902 -0.36793,1.2464 -0.21139,1.91493 0.0677,0.24723 0.31379,0.14681 0.70034,0.52613 0.12503,0.12997 0.17565,0.32307 0.0547,0.66168 0.24586,0.16299 0.21428,0.38914 0.26275,0.59192 -0.13178,-0.19014 -0.38752,-0.34095 -0.43931,-0.32477 -0.46081,0.25004 -0.30046,0.80764 -3.02264,0.58154 l -0.17289,0.20916 c -0.18878,-0.0327 -0.24095,0.0365 -0.615,-0.1343 -0.62142,0.36242 -1.20623,0.60861 -1.75981,0.75568 0.50278,-0.40855 1.53637,-0.86717 2.05391,-1.54179 -1.02033,-0.36918 -1.75622,-0.17761 -1.93013,-0.17747 -0.73365,0.009 -5.606554,2.49772 -6.686234,3.10613 z"
       id="path611-3-6"
       sodipodi:nodetypes="ccccccccccccccccccccc" /><path
       style="fill:#000000;fill-opacity:1;stroke:#000000;stroke-width:0.5;stroke-dasharray:none;stroke-opacity:1"
       d="m 106.95257,187.28912 c 1.83529,-0.80169 3.67945,-1.55683 5.66147,-1.58932 0.44003,1.20053 1.09228,0.6773 2.07884,1.63798 -0.14336,-0.75889 -0.0542,-1.21757 -0.008,-1.73237 1.14895,-1.49309 3.39088,-1.33295 4.49261,-2.74167 -2.44362,0.68597 -3.57598,0.19901 -5.39014,1.99511 -0.0932,-0.13602 -0.24861,-0.2754 -0.12613,-0.60635 -0.46628,0.0957 -0.99402,0.18201 -1.47927,0.76424 -2.76271,0.39589 -3.99309,1.30637 -5.22893,2.27239 z"
       id="path905-7-2"
       sodipodi:nodetypes="ccccccccc" /><path
       style="fill:#000000;fill-opacity:1;stroke:#000000;stroke-width:0.5;stroke-dasharray:none;stroke-opacity:1"
       d="m 97.335516,209.7049 c -0.53347,2.38696 0.0267,4.4292 0.76886,6.10921 0.55872,1.12869 1.43002,2.48212 1.61208,2.4643 -0.11822,-0.46333 -0.45637,-1.20544 -0.37713,-1.29506 0.21453,0.16071 0.781614,2.21074 1.028754,2.29126 -0.385654,-5.37291 -2.167944,-7.58283 -2.198144,-8.46042 -0.0428,-0.38813 0.0444,-0.55952 0.0958,-0.79062 0.9085,0.48447 1.50283,-0.12576 1.882814,-0.44402 0.28663,0.0228 0.50795,0.15621 1.00362,-0.17464 -0.0747,-0.13352 -0.14406,-0.2655 -0.32248,-0.42904 0.0768,-0.47898 -0.0424,-0.83516 -0.28488,-1.114 2.17048,-1.21841 3.46399,-0.6131 4.54579,-0.37486 0.56322,0.097 2.00004,0.50542 3.55566,0.95617 l -0.10572,-0.22498 c -2.90439,-0.93817 -5.62213,-2.54538 -6.737,-2.23965 -1.08311,0.2284 -1.67223,0.61901 -2.318424,0.99088 -1.40196,0.78972 -1.67921,0.81227 -2.01301,0.79349 -0.71232,0.79258 -0.87347,1.42734 -1.0425,2.37773 l 0.43549,0.01 z"
       id="path1353-5-9"
       sodipodi:nodetypes="cccccccccccccccccccc" /><path
       style="fill:#000000;fill-opacity:1;stroke:#000000;stroke-width:0.5;stroke-dasharray:none;stroke-opacity:1"
       d="m 82.776536,203.38933 c 1.1538,-0.0135 3.50886,-1.84667 5.00949,-2.47221 1.28313,-0.79342 2.33325,-1.70634 2.7648,-2.22242 0.18675,-0.63226 0.55049,-1.12048 1.01375,-1.62698 1.46945,-3.61286 3.46041,-7.59092 4.18136,-9.16378 0.1304,-0.22959 0.14213,-0.21986 0.35959,-0.23522 2.31654,4.82444 -1.92123,5.1966 -3.04965,9.7188 0.3262,0.18103 0.39555,0.39644 0.32922,0.63001 0.11878,0.0361 0.32153,0.18675 0.31348,0.23777 -0.0183,0.0519 -0.28693,-0.031 -0.40277,0.0966 -0.91524,0.9199 -1.13837,1.54383 -2.55939,1.04087 l -3.85765,3.39658 c -0.96575,0.389 -1.42044,0.5305 -2.26598,0.58104 -0.54494,-0.0651 -1.56937,0.39247 -2.03719,0.22152 -0.011,-0.0801 0.13632,-0.18779 0.20094,-0.20258 z"
       id="path1357-5-2"
       sodipodi:nodetypes="ccccccccccccccc" /></g><g
     inkscape:groupmode="layer"
     id="layer2"
     inkscape:label="Boxes"
     style="display:inline"><rect
       style="fill:none;stroke:#000000;stroke-width:0.784314;stroke-linejoin:round;stroke-dasharray:none;stroke-opacity:1"
       id="rect1560"
       width="39.215687"
       height="39.215687"
       x="40.392159"
       y="140.39215" /><rect
       style="fill:none;stroke:#000000;stroke-width:0.784314;stroke-linejoin:round;stroke-dasharray:none;stroke-opacity:1"
       id="rect1560-7"
       width="39.215687"
       height="39.215687"
       x="81.392159"
       y="140.39215" /><rect
       style="fill:none;stroke:#000000;stroke-width:0.784314;stroke-linejoin:round;stroke-dasharray:none;stroke-opacity:1"
       id="rect1560-0"
       width="39.215687"
       height="39.215687"
       x="40.392159"
       y="181.39215" /><rect
       style="fill:none;stroke:#000000;stroke-width:0.784314;stroke-linejoin:round;stroke-dasharray:none;stroke-opacity:1"
       id="rect1560-7-9"
       width="39.215687"
       height="39.215687"
       x="81.392159"
       y="181.39215" /></g></svg>
