<?xml version="1.0" encoding="UTF-8" standalone="no"?>
<!-- Created with Inkscape (http://www.inkscape.org/) -->

<svg
   width="210mm"
   height="297mm"
   viewBox="0 0 210 297"
   version="1.1"
   id="svg5"
   sodipodi:docname="adsr_icons_S.svg"
   inkscape:version="1.2.2 (b0a8486541, 2022-12-01)"
   xml:space="preserve"
   xmlns:inkscape="http://www.inkscape.org/namespaces/inkscape"
   xmlns:sodipodi="http://sodipodi.sourceforge.net/DTD/sodipodi-0.dtd"
   xmlns="http://www.w3.org/2000/svg"
   xmlns:svg="http://www.w3.org/2000/svg"><sodipodi:namedview
     id="namedview7"
     pagecolor="#ffffff"
     bordercolor="#666666"
     borderopacity="1.0"
     inkscape:pageshadow="2"
     inkscape:pageopacity="0.0"
     inkscape:pagecheckerboard="0"
     inkscape:document-units="mm"
     showgrid="false"
     inkscape:zoom="0.90583674"
     inkscape:cx="12.143469"
     inkscape:cy="644.15581"
     inkscape:window-width="1854"
     inkscape:window-height="1011"
     inkscape:window-x="66"
     inkscape:window-y="32"
     inkscape:window-maximized="1"
     inkscape:current-layer="layer2"
     inkscape:showpageshadow="2"
     inkscape:deskcolor="#d1d1d1"
     showguides="true" /><defs
     id="defs2"><inkscape:path-effect
       effect="mirror_symmetry"
       start_point="167.47412,199.82421"
       end_point="167.47412,207.51072"
       center_point="167.47412,203.66746"
       id="path-effect4394"
       is_visible="true"
       lpeversion="1.2"
       lpesatellites=""
       mode="free"
       discard_orig_path="false"
       fuse_paths="false"
       oposite_fuse="false"
       split_items="false"
       split_open="false"
       link_styles="false" /><inkscape:path-effect
       effect="mirror_symmetry"
       start_point="167.41389,204.86826"
       end_point="167.41389,216.78946"
       center_point="167.41389,210.82886"
       id="path-effect4363"
       is_visible="true"
       lpeversion="1.2"
       lpesatellites=""
       mode="free"
       discard_orig_path="false"
       fuse_paths="false"
       oposite_fuse="true"
       split_items="false"
       split_open="false"
       link_styles="false" /><inkscape:path-effect
       effect="mirror_symmetry"
       start_point="167.52168,181.29163"
       end_point="167.52168,194.09611"
       center_point="167.52168,187.69387"
       id="path-effect4361"
       is_visible="true"
       lpeversion="1.2"
       lpesatellites=""
       mode="free"
       discard_orig_path="false"
       fuse_paths="false"
       oposite_fuse="true"
       split_items="false"
       split_open="false"
       link_styles="false" /><inkscape:path-effect
       effect="mirror_symmetry"
       start_point="167.57463,114.48427"
       end_point="167.57463,173.35511"
       center_point="167.57463,143.91969"
       id="path-effect4359"
       is_visible="true"
       lpeversion="1.2"
       lpesatellites=""
       mode="free"
       discard_orig_path="false"
       fuse_paths="false"
       oposite_fuse="true"
       split_items="false"
       split_open="false"
       link_styles="false" /><inkscape:path-effect
       effect="mirror_symmetry"
       start_point="167.57463,114.48427"
       end_point="167.57463,173.35511"
       center_point="167.57463,143.91969"
       id="path-effect4359-7"
       is_visible="true"
       lpeversion="1.2"
       lpesatellites=""
       mode="free"
       discard_orig_path="false"
       fuse_paths="false"
       oposite_fuse="true"
       split_items="false"
       split_open="false"
       link_styles="false" /><inkscape:path-effect
       effect="mirror_symmetry"
       start_point="167.41389,204.86826"
       end_point="167.41389,216.78946"
       center_point="167.41389,210.82886"
       id="path-effect4363-5"
       is_visible="true"
       lpeversion="1.2"
       lpesatellites=""
       mode="free"
       discard_orig_path="false"
       fuse_paths="false"
       oposite_fuse="true"
       split_items="false"
       split_open="false"
       link_styles="false" /><inkscape:path-effect
       effect="mirror_symmetry"
       start_point="167.52168,181.29163"
       end_point="167.52168,194.09611"
       center_point="167.52168,187.69387"
       id="path-effect4361-9"
       is_visible="true"
       lpeversion="1.2"
       lpesatellites=""
       mode="free"
       discard_orig_path="false"
       fuse_paths="false"
       oposite_fuse="true"
       split_items="false"
       split_open="false"
       link_styles="false" /><inkscape:path-effect
       effect="mirror_symmetry"
       start_point="167.47412,199.82421"
       end_point="167.47412,207.51072"
       center_point="167.47412,203.66746"
       id="path-effect4394-2"
       is_visible="true"
       lpeversion="1.2"
       lpesatellites=""
       mode="free"
       discard_orig_path="false"
       fuse_paths="false"
       oposite_fuse="false"
       split_items="false"
       split_open="false"
       link_styles="false" /></defs><g
     inkscape:label="Layer 1"
     inkscape:groupmode="layer"
     id="layer1"
     style="display:inline" /><g
     inkscape:groupmode="layer"
     id="layer3"
     inkscape:label="Attack"
     style="display:inline" /><g
     inkscape:groupmode="layer"
     id="layer4"
     inkscape:label="Decay"
     style="display:inline" /><g
     inkscape:groupmode="layer"
     id="layer5"
     inkscape:label="Sustain"
     style="display:inline"><path
       id="path4720-9-6-7"
       style="fill:none;fill-opacity:1;stroke:#000000;stroke-width:0.6;stroke-linecap:round;stroke-linejoin:round;stroke-dasharray:none;stroke-opacity:1"
       d="m 54.217362,181.37653 a 10.123182,10.123183 0 0 0 8.203634,4.20284 10.123182,10.123183 0 0 0 2.005562,-0.20516 10.123182,10.123183 0 0 1 1.328602,-3.99768 z" /><path
       id="path4718-7-1-8"
       style="fill:none;fill-opacity:1;stroke:#000000;stroke-width:0.6;stroke-linecap:round;stroke-linejoin:round;stroke-dasharray:none;stroke-opacity:1"
       d="m 58.274996,181.37653 a 7.2308445,7.2308459 0 0 0 4.146,1.31051 7.2308445,7.2308459 0 0 0 2.980697,-0.65112 10.123182,10.123183 0 0 1 0.353467,-0.65939 z" /><path
       id="path4720-9-6"
       style="fill:none;fill-opacity:1;stroke:#000000;stroke-width:0.6;stroke-linecap:round;stroke-linejoin:round;stroke-dasharray:none;stroke-opacity:1"
       d="m 62.07218,188.46602 a 10.123182,10.123183 0 0 0 -8.700761,4.95835 13.01552,13.01552 0 0 1 5.182113,9.07076 13.01552,13.01552 0 0 1 7.458976,2.38642 7.2308445,7.2308459 0 0 0 -0.03152,0.0419 7.2308445,7.2308459 0 0 1 2.425174,-1.95595 7.2308445,7.2308459 0 0 0 -0.373103,0.19223 15.907858,15.907858 0 0 1 3.970817,-6.49107 10.123182,10.123183 0 0 0 -0.07286,-0.37776 10.123182,10.123183 0 0 1 -7.299296,-7.49567 10.123182,10.123183 0 0 0 -2.559534,-0.32917 z m 8.158675,13.88132 a 7.2308445,7.2308459 0 0 0 -0.594279,0.14159 7.2308445,7.2308459 0 0 1 0.594279,-0.14159 z m -11.731583,0.14573 a 13.01552,13.01552 0 0 0 -0.892452,0.032 13.01552,13.01552 0 0 1 0.892452,-0.032 z m 11.114567,0.003 a 7.2308445,7.2308459 0 0 0 -0.583427,0.19585 7.2308445,7.2308459 0 0 1 0.583427,-0.19585 z m -12.02924,0.031 a 13.01552,13.01552 0 0 0 -0.866097,0.0904 13.01552,13.01552 0 0 1 0.866097,-0.0904 z m -0.894519,0.0951 a 13.01552,13.01552 0 0 0 -0.845427,0.14779 13.01552,13.01552 0 0 1 0.845427,-0.14779 z m 12.318628,0.0785 a 7.2308445,7.2308459 0 0 0 -0.557589,0.24339 7.2308445,7.2308459 0 0 1 0.557589,-0.24339 z m -13.22555,0.0837 a 13.01552,13.01552 0 0 0 -0.811836,0.20051 13.01552,13.01552 0 0 1 0.811836,-0.20051 z m -0.843359,0.20981 a 13.01552,13.01552 0 0 0 -0.816488,0.262 13.01552,13.01552 0 0 1 0.816488,-0.262 z m -0.854728,0.27647 a 13.01552,13.01552 0 0 0 -0.804602,0.32091 13.01552,13.01552 0 0 1 0.804602,-0.32091 z m 11.754321,1.84278 a 7.2308445,7.2308459 0 0 0 -0.235128,0.32504 7.2308445,7.2308459 0 0 1 0.235128,-0.32504 z m -0.337447,0.49041 a 7.2308445,7.2308459 0 0 0 -0.227893,0.38189 7.2308445,7.2308459 0 0 1 0.227893,-0.38189 z m -0.297139,0.51883 a 7.2308445,7.2308459 0 0 0 -0.212907,0.44132 7.2308445,7.2308459 0 0 1 0.212907,-0.44132 z m -0.255799,0.54725 a 7.2308445,7.2308459 0 0 0 -0.185001,0.48834 7.2308445,7.2308459 0 0 1 0.185001,-0.48834 z m -0.215491,0.58653 a 7.2308445,7.2308459 0 0 0 -0.144694,0.5178 7.2308445,7.2308459 0 0 1 0.144694,-0.5178 z m -0.16123,0.59273 a 7.2308445,7.2308459 0 0 0 -0.104903,0.55965 7.2308445,7.2308459 0 0 1 0.104903,-0.55965 z" /><path
       id="path4718-7-1"
       style="fill:none;fill-opacity:1;stroke:#000000;stroke-width:0.6;stroke-linecap:round;stroke-linejoin:round;stroke-dasharray:none;stroke-opacity:1"
       d="m 62.07218,191.35835 a 7.2308445,7.2308459 0 0 0 -6.519499,4.11396 13.01552,13.01552 0 0 1 3.000851,7.02282 13.01552,13.01552 0 0 1 7.279659,2.26705 7.2308445,7.2308459 0 0 0 3.470072,-6.17327 7.2308445,7.2308459 0 0 0 -7.231083,-7.23056 z m -3.572908,11.13472 a 13.01552,13.01552 0 0 0 -0.781865,0.0253 13.01552,13.01552 0 0 1 0.781865,-0.0253 z m -0.837675,0.0294 a 13.01552,13.01552 0 0 0 -0.730705,0.0677 13.01552,13.01552 0 0 1 0.730705,-0.0677 z m -0.772046,0.0739 a 13.01552,13.01552 0 0 0 -0.745174,0.11524 13.01552,13.01552 0 0 1 0.745174,-0.11524 z" /><circle
       style="fill:none;fill-opacity:1;stroke:#000000;stroke-width:0.6;stroke-linecap:round;stroke-linejoin:round;stroke-dasharray:none;stroke-opacity:1"
       id="path4716-3-55"
       cx="62.072392"
       cy="198.589"
       r="4.3385077" /><circle
       style="fill:none;fill-opacity:1;stroke:#000000;stroke-width:0.6;stroke-linecap:round;stroke-linejoin:round;stroke-dasharray:none;stroke-opacity:1"
       id="path4714-6-4"
       cx="62.072392"
       cy="198.589"
       r="1.4461689" /><path
       id="path4722-8-6-8"
       style="fill:none;fill-opacity:1;stroke:#000000;stroke-width:0.6;stroke-linecap:round;stroke-linejoin:round;stroke-dasharray:none;stroke-opacity:1"
       d="m 79.641134,195.20462 a 10.123182,10.123183 0 0 1 -5.156275,1.41594 10.123182,10.123183 0 0 1 -2.186946,-0.24443 15.907858,15.907858 0 0 0 -4.264856,6.78356 7.2308445,7.2308459 0 0 1 3.584277,-0.95239 7.2308445,7.2308459 0 0 1 7.230566,7.23056 7.2308445,7.2308459 0 0 1 -7.230566,7.23109 7.2308445,7.2308459 0 0 1 -0.159163,-0.007 13.01552,13.01552 0 0 1 -0.269235,1.70016 15.907858,15.907858 0 0 0 2.468067,2.30941 h 5.984131 z" /><path
       id="path4722-8-6"
       style="fill:none;fill-opacity:1;stroke:#000000;stroke-width:0.6;stroke-linecap:round;stroke-linejoin:round;stroke-dasharray:none;stroke-opacity:1"
       d="m 79.641134,195.44388 a 13.01552,13.01552 0 0 0 -8.115784,6.76755 7.2308445,7.2308459 0 0 1 0.09198,-0.004 7.2308445,7.2308459 0 0 1 7.230566,7.23056 7.2308445,7.2308459 0 0 1 -5.495788,7.01508 13.01552,13.01552 0 0 0 6.289022,4.01526 z" /><path
       id="path4720-9-1"
       style="fill:none;fill-opacity:1;stroke:#000000;stroke-width:0.6;stroke-linecap:round;stroke-linejoin:round;stroke-dasharray:none;stroke-opacity:1"
       d="m 79.641134,198.48349 a 10.123182,10.123183 0 0 0 -5.148523,4.32067 7.2308445,7.2308459 0 0 1 4.355289,6.6337 7.2308445,7.2308459 0 0 1 -2.778125,5.69474 10.123182,10.123183 0 0 0 3.571359,2.29651 z" /><path
       id="path4718-7-0"
       style="fill:none;fill-opacity:1;stroke:#000000;stroke-width:0.6;stroke-linecap:round;stroke-linejoin:round;stroke-dasharray:none;stroke-opacity:1"
       d="m 79.641134,201.66366 a 7.2308445,7.2308459 0 0 0 -2.770891,2.80603 7.2308445,7.2308459 0 0 1 1.977657,4.96817 7.2308445,7.2308459 0 0 1 -0.89917,3.48661 7.2308445,7.2308459 0 0 0 1.692404,1.32447 z" /><path
       id="path4722"
       style="fill:none;fill-opacity:1;stroke:#000000;stroke-width:0.6;stroke-linecap:round;stroke-linejoin:round;stroke-dasharray:none;stroke-opacity:1"
       d="m 43.331205,191.05966 a 13.01552,13.01552 0 0 0 -2.985347,0.91467 v 14.50144 a 10.123182,10.123183 0 0 1 6.131408,4.04523 13.01552,13.01552 0 0 1 12.022006,-8.02793 13.01552,13.01552 0 0 1 0.05426,0.002 13.01552,13.01552 0 0 0 -5.651851,-9.41131 7.2308445,7.2308459 0 0 1 -3.688147,1.01234 7.2308445,7.2308459 0 0 1 -5.882329,-3.0365 z m 2.85409,20.2432 a 13.01552,13.01552 0 0 0 -0.01809,0.0543 13.01552,13.01552 0 0 1 0.01809,-0.0543 z m -0.238229,0.77825 a 13.01552,13.01552 0 0 0 -0.02532,0.0909 13.01552,13.01552 0 0 1 0.02532,-0.0909 z m -0.341064,1.66915 a 13.01552,13.01552 0 0 0 -0.01964,0.1571 13.01552,13.01552 0 0 1 0.01964,-0.1571 z m -0.0832,0.79478 a 13.01552,13.01552 0 0 0 -0.01344,0.18087 13.01552,13.01552 0 0 1 0.01344,-0.18087 z m -0.0155,1.62368 a 13.01552,13.01552 0 0 0 0.05839,0.709 13.01552,13.01552 0 0 1 -0.05839,-0.709 z" /><path
       id="path4720"
       style="fill:none;fill-opacity:1;stroke:#000000;stroke-width:0.6;stroke-linecap:round;stroke-linejoin:round;stroke-dasharray:none;stroke-opacity:1"
       d="m 45.618404,193.74115 a 10.123182,10.123183 0 0 0 -5.272546,1.48879 v 11.24583 a 10.123182,10.123183 0 0 1 6.133475,4.04833 13.01552,13.01552 0 0 0 -0.08216,0.21446 13.01552,13.01552 0 0 1 9.282638,-7.92975 10.123182,10.123183 0 0 0 -10.061402,-9.06766 z m 0.679028,17.25837 a 13.01552,13.01552 0 0 0 -0.134875,0.38034 13.01552,13.01552 0 0 1 0.134875,-0.38034 z m -0.219108,0.64441 a 13.01552,13.01552 0 0 0 -0.118339,0.39481 13.01552,13.01552 0 0 1 0.118339,-0.39481 z m -0.175699,0.61805 a 13.01552,13.01552 0 0 0 -0.110071,0.447 13.01552,13.01552 0 0 1 0.110071,-0.447 z m -0.128158,0.53588 a 13.01552,13.01552 0 0 0 -0.198438,1.18804 13.01552,13.01552 0 0 1 0.198438,-1.18804 z" /><path
       id="path4718"
       style="fill:none;fill-opacity:1;stroke:#000000;stroke-width:0.6;stroke-linecap:round;stroke-linejoin:round;stroke-dasharray:none;stroke-opacity:1"
       d="m 45.618404,196.63348 a 7.2308445,7.2308459 0 0 0 -5.272546,2.28461 v 7.55768 a 10.123182,10.123183 0 0 1 6.133475,4.04833 13.01552,13.01552 0 0 0 -0.208772,0.54105 13.01552,13.01552 0 0 1 6.575309,-7.27604 7.2308445,7.2308459 0 0 0 -7.227466,-7.15563 z" /><circle
       style="fill:none;fill-opacity:1;stroke:#000000;stroke-width:0.6;stroke-linecap:round;stroke-linejoin:round;stroke-dasharray:none;stroke-opacity:1"
       id="path4716"
       cx="45.618496"
       cy="203.8642"
       r="4.3385077" /><circle
       style="fill:none;fill-opacity:1;stroke:#000000;stroke-width:0.6;stroke-linecap:round;stroke-linejoin:round;stroke-dasharray:none;stroke-opacity:1"
       id="path4714"
       cx="45.618496"
       cy="203.8642"
       r="1.4461689" /><path
       id="path4722-8"
       style="fill:none;fill-opacity:1;stroke:#000000;stroke-width:0.6;stroke-linecap:round;stroke-linejoin:round;stroke-dasharray:none;stroke-opacity:1"
       d="m 58.499272,202.49307 a 13.01552,13.01552 0 0 0 -13.015743,13.01522 13.01552,13.01552 0 0 0 1.077453,5.16299 h 23.876062 a 13.01552,13.01552 0 0 0 1.021127,-4.00957 7.2308445,7.2308459 0 0 1 -7.07192,-7.22385 7.2308445,7.2308459 0 0 1 1.626257,-4.55631 13.01552,13.01552 0 0 0 -7.513236,-2.38848 z" /><path
       id="path4722-8-5"
       style="display:inline;fill:none;fill-opacity:1;stroke:#000000;stroke-width:0.6;stroke-linecap:round;stroke-linejoin:round;stroke-dasharray:none;stroke-opacity:1"
       d="M 64.369305 186.16051 A 10.123182 10.123183 0 0 1 64.387801 185.82483 A 13.01552 13.01552 0 0 0 61.879944 185.57524 L 61.879944 185.57524 A 13.01552 13.01552 0 0 0 56.439449 186.76793 A 7.2308445 7.2308459 0 0 1 56.442208 186.82218 " /><path
       id="path4720-9"
       style="fill:none;fill-opacity:1;stroke:#000000;stroke-width:0.6;stroke-linecap:round;stroke-linejoin:round;stroke-dasharray:none;stroke-opacity:1"
       d="m 58.499272,205.3854 a 10.123182,10.123183 0 0 0 -10.123413,10.12289 10.123182,10.123183 0 0 0 1.420068,5.16299 h 17.406689 a 10.123182,10.123183 0 0 0 1.404566,-4.66328 7.2308445,7.2308459 0 0 1 -4.220931,-6.57014 7.2308445,7.2308459 0 0 1 0.274918,-1.95492 10.123182,10.123183 0 0 0 -6.161897,-2.09754 z" /><path
       id="path4718-7"
       style="fill:none;fill-opacity:1;stroke:#000000;stroke-width:0.6;stroke-linecap:round;stroke-linejoin:round;stroke-dasharray:none;stroke-opacity:1"
       d="m 58.499272,208.27773 a 7.2308445,7.2308459 0 0 0 -7.231084,7.23056 7.2308445,7.2308459 0 0 0 2.174545,5.16299 h 10.112561 a 7.2308445,7.2308459 0 0 0 2.174544,-5.16299 7.2308445,7.2308459 0 0 0 -7.230566,-7.23056 z" /><circle
       style="fill:none;fill-opacity:1;stroke:#000000;stroke-width:0.6;stroke-linecap:round;stroke-linejoin:round;stroke-dasharray:none;stroke-opacity:1"
       id="path4716-3"
       cx="58.499184"
       cy="215.50853"
       r="4.3385077" /><circle
       style="fill:none;fill-opacity:1;stroke:#000000;stroke-width:0.6;stroke-linecap:round;stroke-linejoin:round;stroke-dasharray:none;stroke-opacity:1"
       id="path4714-6"
       cx="58.499184"
       cy="215.50853"
       r="1.4461689" /><path
       id="path4720-9-8"
       style="fill:none;fill-opacity:1;stroke:#000000;stroke-width:0.6;stroke-linecap:round;stroke-linejoin:round;stroke-dasharray:none;stroke-opacity:1"
       d="m 40.345858,206.47577 v 14.19551 h 6.215124 a 13.01552,13.01552 0 0 1 -1.077453,-5.16299 13.01552,13.01552 0 0 1 0.995804,-4.98419 10.123182,10.123183 0 0 0 -6.133475,-4.04833 z" /><path
       id="path4718-7-4"
       style="fill:none;fill-opacity:1;stroke:#000000;stroke-width:0.6;stroke-linecap:round;stroke-linejoin:round;stroke-dasharray:none;stroke-opacity:1"
       d="m 40.345858,209.46112 v 11.21016 h 3.688663 a 7.2308445,7.2308459 0 0 0 1.422136,-4.29741 7.2308445,7.2308459 0 0 0 -5.110799,-6.91275 z" /><path
       id="path4716-3-5"
       style="fill:none;fill-opacity:1;stroke:#000000;stroke-width:0.6;stroke-linecap:round;stroke-linejoin:round;stroke-dasharray:none;stroke-opacity:1"
       d="m 40.345858,212.58909 v 7.56801 a 4.3385077,4.3385077 0 0 0 2.218469,-3.78323 4.3385077,4.3385077 0 0 0 -2.218469,-3.78478 z" /><path
       id="path4720-9-8-4"
       style="fill:none;fill-opacity:1;stroke:#000000;stroke-width:0.6;stroke-linecap:round;stroke-linejoin:round;stroke-dasharray:none;stroke-opacity:1"
       d="m 65.75516,181.37653 a 10.123182,10.123183 0 0 0 -1.393197,5.12061 10.123182,10.123183 0 0 0 10.122896,10.12342 10.123182,10.123183 0 0 0 5.156275,-1.41594 v -13.82809 z" /><path
       id="path4718-7-4-7"
       style="fill:none;fill-opacity:1;stroke:#000000;stroke-width:0.6;stroke-linecap:round;stroke-linejoin:round;stroke-dasharray:none;stroke-opacity:1"
       d="m 69.386979,181.37653 a 7.2308445,7.2308459 0 0 0 -2.132686,5.12061 7.2308445,7.2308459 0 0 0 7.230566,7.23109 7.2308445,7.2308459 0 0 0 5.156275,-2.16886 V 181.4282 a 7.2308445,7.2308459 0 0 0 -0.05168,-0.0517 z" /><circle
       style="fill:none;fill-opacity:1;stroke:#000000;stroke-width:0.6;stroke-linecap:round;stroke-linejoin:round;stroke-dasharray:none;stroke-opacity:1"
       id="path4716-3-5-4"
       cx="74.484894"
       cy="186.49718"
       r="4.3385077" /><circle
       style="fill:none;fill-opacity:1;stroke:#000000;stroke-width:0.6;stroke-linecap:round;stroke-linejoin:round;stroke-dasharray:none;stroke-opacity:1"
       id="path4714-6-0-4"
       cx="74.484894"
       cy="186.49718"
       r="1.4461689" /><path
       id="path4720-9-8-4-6"
       style="fill:none;fill-opacity:1;stroke:#000000;stroke-width:0.6;stroke-linecap:round;stroke-linejoin:round;stroke-dasharray:none;stroke-opacity:1"
       d="m 40.345858,181.37653 v 9.42939 a 10.123182,10.123183 0 0 0 1.734261,-5.66373 10.123182,10.123183 0 0 0 -0.727088,-3.76566 z" /><ellipse
       style="fill:none;fill-opacity:1;stroke:#000000;stroke-width:0.6;stroke-linecap:round;stroke-linejoin:round;stroke-dasharray:none;stroke-opacity:1"
       id="path4718-7-3"
       cx="71.617233"
       cy="209.43806"
       rx="7.2308445"
       ry="7.2308459" /><circle
       style="fill:none;fill-opacity:1;stroke:#000000;stroke-width:0.6;stroke-linecap:round;stroke-linejoin:round;stroke-dasharray:none;stroke-opacity:1"
       id="path4716-3-1"
       cx="71.617233"
       cy="209.43806"
       r="4.3385077" /><circle
       style="fill:none;fill-opacity:1;stroke:#000000;stroke-width:0.6;stroke-linecap:round;stroke-linejoin:round;stroke-dasharray:none;stroke-opacity:1"
       id="path4714-6-9"
       cx="71.617233"
       cy="209.43806"
       r="1.4461689" /><path
       id="path4718-7-3-6"
       style="fill:none;fill-opacity:1;stroke:#000000;stroke-width:0.6;stroke-linecap:round;stroke-linejoin:round;stroke-dasharray:none;stroke-opacity:1"
       d="m 44.513562,181.37653 a 7.2308445,7.2308459 0 0 0 -2.531112,5.48855 7.2308445,7.2308459 0 0 0 7.231084,7.23108 7.2308445,7.2308459 0 0 0 7.230566,-7.23108 7.2308445,7.2308459 0 0 0 -2.524394,-5.48855 z" /><circle
       style="fill:none;fill-opacity:1;stroke:#000000;stroke-width:0.6;stroke-linecap:round;stroke-linejoin:round;stroke-dasharray:none;stroke-opacity:1"
       id="path4716-3-1-5"
       cx="49.213375"
       cy="186.86531"
       r="4.3385077" /><circle
       style="fill:none;fill-opacity:1;stroke:#000000;stroke-width:0.6;stroke-linecap:round;stroke-linejoin:round;stroke-dasharray:none;stroke-opacity:1"
       id="path4714-6-9-6"
       cx="49.213375"
       cy="186.86531"
       r="1.4461689" /></g><g
     inkscape:groupmode="layer"
     id="layer6"
     inkscape:label="Release"
     style="display:inline" /><g
     inkscape:groupmode="layer"
     id="layer2"
     inkscape:label="Boxes"
     style="display:inline"><rect
       style="fill:none;stroke:#000000;stroke-width:0.784314;stroke-linejoin:round;stroke-dasharray:none;stroke-opacity:1"
       id="rect1560-0"
       width="39.215687"
       height="39.215687"
       x="40.392159"
       y="181.39215" /></g></svg>
