<?xml version="1.0" encoding="UTF-8" standalone="no"?>
<!-- Created with Inkscape (http://www.inkscape.org/) -->

<svg
   width="210mm"
   height="297mm"
   viewBox="0 0 210 297"
   version="1.1"
   id="svg5"
   sodipodi:docname="adsr_icons_D.svg"
   inkscape:version="1.2.2 (b0a8486541, 2022-12-01)"
   xml:space="preserve"
   xmlns:inkscape="http://www.inkscape.org/namespaces/inkscape"
   xmlns:sodipodi="http://sodipodi.sourceforge.net/DTD/sodipodi-0.dtd"
   xmlns="http://www.w3.org/2000/svg"
   xmlns:svg="http://www.w3.org/2000/svg"><sodipodi:namedview
     id="namedview7"
     pagecolor="#ffffff"
     bordercolor="#666666"
     borderopacity="1.0"
     inkscape:pageshadow="2"
     inkscape:pageopacity="0.0"
     inkscape:pagecheckerboard="0"
     inkscape:document-units="mm"
     showgrid="false"
     inkscape:zoom="0.90583674"
     inkscape:cx="12.143469"
     inkscape:cy="644.15581"
     inkscape:window-width="1854"
     inkscape:window-height="1011"
     inkscape:window-x="66"
     inkscape:window-y="32"
     inkscape:window-maximized="1"
     inkscape:current-layer="layer2"
     inkscape:showpageshadow="2"
     inkscape:deskcolor="#d1d1d1"
     showguides="true" /><defs
     id="defs2"><inkscape:path-effect
       effect="mirror_symmetry"
       start_point="167.47412,199.82421"
       end_point="167.47412,207.51072"
       center_point="167.47412,203.66746"
       id="path-effect4394"
       is_visible="true"
       lpeversion="1.2"
       lpesatellites=""
       mode="free"
       discard_orig_path="false"
       fuse_paths="false"
       oposite_fuse="false"
       split_items="false"
       split_open="false"
       link_styles="false" /><inkscape:path-effect
       effect="mirror_symmetry"
       start_point="167.41389,204.86826"
       end_point="167.41389,216.78946"
       center_point="167.41389,210.82886"
       id="path-effect4363"
       is_visible="true"
       lpeversion="1.2"
       lpesatellites=""
       mode="free"
       discard_orig_path="false"
       fuse_paths="false"
       oposite_fuse="true"
       split_items="false"
       split_open="false"
       link_styles="false" /><inkscape:path-effect
       effect="mirror_symmetry"
       start_point="167.52168,181.29163"
       end_point="167.52168,194.09611"
       center_point="167.52168,187.69387"
       id="path-effect4361"
       is_visible="true"
       lpeversion="1.2"
       lpesatellites=""
       mode="free"
       discard_orig_path="false"
       fuse_paths="false"
       oposite_fuse="true"
       split_items="false"
       split_open="false"
       link_styles="false" /><inkscape:path-effect
       effect="mirror_symmetry"
       start_point="167.57463,114.48427"
       end_point="167.57463,173.35511"
       center_point="167.57463,143.91969"
       id="path-effect4359"
       is_visible="true"
       lpeversion="1.2"
       lpesatellites=""
       mode="free"
       discard_orig_path="false"
       fuse_paths="false"
       oposite_fuse="true"
       split_items="false"
       split_open="false"
       link_styles="false" /><inkscape:path-effect
       effect="mirror_symmetry"
       start_point="167.57463,114.48427"
       end_point="167.57463,173.35511"
       center_point="167.57463,143.91969"
       id="path-effect4359-7"
       is_visible="true"
       lpeversion="1.2"
       lpesatellites=""
       mode="free"
       discard_orig_path="false"
       fuse_paths="false"
       oposite_fuse="true"
       split_items="false"
       split_open="false"
       link_styles="false" /><inkscape:path-effect
       effect="mirror_symmetry"
       start_point="167.41389,204.86826"
       end_point="167.41389,216.78946"
       center_point="167.41389,210.82886"
       id="path-effect4363-5"
       is_visible="true"
       lpeversion="1.2"
       lpesatellites=""
       mode="free"
       discard_orig_path="false"
       fuse_paths="false"
       oposite_fuse="true"
       split_items="false"
       split_open="false"
       link_styles="false" /><inkscape:path-effect
       effect="mirror_symmetry"
       start_point="167.52168,181.29163"
       end_point="167.52168,194.09611"
       center_point="167.52168,187.69387"
       id="path-effect4361-9"
       is_visible="true"
       lpeversion="1.2"
       lpesatellites=""
       mode="free"
       discard_orig_path="false"
       fuse_paths="false"
       oposite_fuse="true"
       split_items="false"
       split_open="false"
       link_styles="false" /><inkscape:path-effect
       effect="mirror_symmetry"
       start_point="167.47412,199.82421"
       end_point="167.47412,207.51072"
       center_point="167.47412,203.66746"
       id="path-effect4394-2"
       is_visible="true"
       lpeversion="1.2"
       lpesatellites=""
       mode="free"
       discard_orig_path="false"
       fuse_paths="false"
       oposite_fuse="false"
       split_items="false"
       split_open="false"
       link_styles="false" /></defs><g
     inkscape:label="Layer 1"
     inkscape:groupmode="layer"
     id="layer1"
     style="display:inline" /><g
     inkscape:groupmode="layer"
     id="layer3"
     inkscape:label="Attack"
     style="display:inline" /><g
     inkscape:groupmode="layer"
     id="layer4"
     inkscape:label="Decay"
     style="display:inline"><path
       id="path3696-3"
       style="fill:#000000;fill-opacity:1;stroke:none;stroke-width:0.0620051;stroke-linecap:round;stroke-linejoin:round;stroke-miterlimit:4;stroke-dasharray:none;stroke-opacity:1"
       d="m 108.28419,149.40185 a 7.8332363,15.707242 60 0 0 -11.99634,3.58933 7.8332363,15.707242 60 0 0 -9.6865,14.63719 7.8332363,15.707242 60 0 0 0.233496,0.35646 3.1945215,3.1945215 0 0 1 0.79831,-1.19585 7.1858783,14.409156 60 0 1 8.978332,-13.23741 7.1858783,14.409156 60 0 1 16.071572,-0.98128 7.1858783,14.409156 60 0 1 -8.88582,13.42776 7.1858783,14.409156 60 0 1 -10.78689,3.29346 3.1945215,3.1945215 0 0 1 -0.166997,0.85536 7.8332363,15.707242 60 0 0 11.277517,-3.58813 7.8332363,15.707242 60 0 0 9.68621,-14.6375 7.8332363,15.707242 60 0 0 -5.52289,-2.51939 z" /><path
       id="path3696-8-6"
       style="fill:#000000;fill-opacity:1;stroke:none;stroke-width:0.0620051;stroke-linecap:round;stroke-linejoin:round;stroke-miterlimit:4;stroke-dasharray:none;stroke-opacity:1"
       d="m 100.20408,144.06782 a 7.8332363,15.707242 0 0 0 -0.859205,0.10347 3.1945215,3.1945215 0 0 1 0.763735,1.20117 7.1858783,14.409156 0 0 1 0.0954,-0.007 7.1858783,14.409156 0 0 1 7.18603,14.40932 7.1858783,14.409156 0 0 1 -7.18603,14.40903 7.1858783,14.409156 0 0 1 -7.185732,-14.40903 7.1858783,14.409156 0 0 1 2.35179,-10.65004 3.1945215,3.1945215 0 0 1 -0.649349,-0.55477 7.8332363,15.707242 0 0 0 -2.349736,11.20481 7.8332363,15.707242 0 0 0 7.833027,15.70714 7.8332363,15.707242 0 0 0 7.83332,-15.70714 7.8332363,15.707242 0 0 0 -7.83332,-15.70714 z" /><path
       id="path3696-8-8-0"
       style="fill:#000000;fill-opacity:1;stroke:none;stroke-width:0.0620051;stroke-linecap:round;stroke-linejoin:round;stroke-miterlimit:4;stroke-dasharray:none;stroke-opacity:1"
       d="m 92.12396,149.40186 a 15.707242,7.8332363 30 0 0 -5.52261,2.51968 15.707242,7.8332363 30 0 0 9.686213,14.6372 15.707242,7.8332363 30 0 0 11.388347,3.58696 l -0.51516,-0.85449 a 14.409156,7.1858783 30 0 1 -10.549548,-3.29317 14.409156,7.1858783 30 0 1 -8.88583,-13.42744 14.409156,7.1858783 30 0 1 16.071868,0.98097 14.409156,7.1858783 30 0 1 8.88552,13.42804 14.409156,7.1858783 30 0 1 -0.36148,0.50631 l 0.94019,0.86451 a 15.707242,7.8332363 30 0 0 0.54562,-0.72176 15.707242,7.8332363 30 0 0 -9.68651,-14.63749 15.707242,7.8332363 30 0 0 -11.99662,-3.58932 z" /><path
       id="path3881-7-6"
       style="fill:#000000;fill-opacity:1;stroke:none;stroke-width:0.537094;stroke-linecap:round;stroke-linejoin:round;stroke-miterlimit:4;stroke-dasharray:none;stroke-opacity:1"
       d="m 103.7554,158.86008 a 3.3808682,3.3808682 0 0 1 -2.652,2.3589 3.3341965,3.3341965 0 0 1 -1.201048,2.20216 2.9998347,2.9998347 0 0 0 2.153148,0.90164 2.9998347,2.9998347 0 0 0 2.98829,-2.99995 v -0.0451 a 2.9998347,2.9998347 0 0 0 -1.28839,-2.41762 z" /><path
       id="path3881-6-1"
       style="fill:#000000;fill-opacity:1;stroke:none;stroke-width:0.555936;stroke-linecap:round;stroke-linejoin:round;stroke-miterlimit:4;stroke-dasharray:none;stroke-opacity:1"
       d="m 100.35496,154.54571 a 3.1050714,3.1050714 0 0 0 -3.043401,2.71791 3.4511628,3.4511628 0 0 1 0.220507,-0.01 3.4511628,3.4511628 0 0 1 3.489434,3.39902 l 5.1e-4,0.0352 a 3.1050714,3.1050714 0 0 0 2.47329,-3.03737 l -5e-4,-0.0467 a 3.1050714,3.1050714 0 0 0 -3.13984,-3.05796 z" /><path
       style="fill:#000000;fill-opacity:1;stroke:none;stroke-width:0.21617;stroke-linecap:round;stroke-linejoin:round;stroke-miterlimit:4;stroke-dasharray:none;stroke-opacity:1"
       id="path4070-8"
       sodipodi:type="arc"
       sodipodi:cx="-97.100578"
       sodipodi:cy="-146.44188"
       sodipodi:rx="2.5643167"
       sodipodi:ry="2.5643167"
       sodipodi:start="0"
       sodipodi:end="6.2681406"
       sodipodi:open="true"
       sodipodi:arc-type="arc"
       d="m -94.536262,-146.44188 a 2.5643167,2.5643167 0 0 1 -2.554671,2.5643 2.5643167,2.5643167 0 0 1 -2.57389,-2.54501 2.5643167,2.5643167 0 0 1 2.535311,-2.58344 2.5643167,2.5643167 0 0 1 2.59296,2.52557"
       transform="scale(-1)" /><path
       style="fill:#000000;fill-opacity:1;stroke:none;stroke-width:0.541801;stroke-linecap:round;stroke-linejoin:round;stroke-miterlimit:4;stroke-dasharray:none;stroke-opacity:1"
       id="path3881-62"
       sodipodi:type="arc"
       sodipodi:cx="97.489197"
       sodipodi:cy="160.79324"
       sodipodi:rx="3.026124"
       sodipodi:ry="3.026124"
       sodipodi:start="0"
       sodipodi:end="6.2681406"
       sodipodi:open="true"
       sodipodi:arc-type="arc"
       d="m 100.51532,160.79324 a 3.026124,3.026124 0 0 1 -3.014741,3.02611 3.026124,3.026124 0 0 1 -3.037421,-3.00334 3.026124,3.026124 0 0 1 2.991894,-3.0487 3.026124,3.026124 0 0 1 3.059928,2.98041" /><path
       style="fill:#000000;fill-opacity:1;stroke:none;stroke-width:0.21617;stroke-linecap:round;stroke-linejoin:round;stroke-miterlimit:4;stroke-dasharray:none;stroke-opacity:1"
       id="path4070-4-7"
       sodipodi:type="arc"
       sodipodi:cx="-89.822411"
       sodipodi:cy="-169.11504"
       sodipodi:rx="2.5643167"
       sodipodi:ry="2.5643167"
       sodipodi:start="0"
       sodipodi:end="6.2681406"
       sodipodi:open="true"
       sodipodi:arc-type="arc"
       transform="scale(-1)"
       d="m -87.258094,-169.11504 a 2.5643167,2.5643167 0 0 1 -2.554672,2.5643 2.5643167,2.5643167 0 0 1 -2.573889,-2.54501 2.5643167,2.5643167 0 0 1 2.53531,-2.58344 2.5643167,2.5643167 0 0 1 2.592961,2.52558" /><path
       style="fill:#000000;fill-opacity:1;stroke:none;stroke-width:0.21617;stroke-linecap:round;stroke-linejoin:round;stroke-miterlimit:4;stroke-dasharray:none;stroke-opacity:1"
       id="path4070-0-9"
       sodipodi:type="arc"
       sodipodi:cx="-99.45092"
       sodipodi:cy="-181.68747"
       sodipodi:rx="2.5643167"
       sodipodi:ry="2.5643167"
       sodipodi:start="0"
       sodipodi:end="6.2681406"
       sodipodi:open="true"
       sodipodi:arc-type="arc"
       transform="rotate(175.33771)"
       d="m -96.886603,-181.68747 a 2.5643167,2.5643167 0 0 1 -2.554672,2.5643 2.5643167,2.5643167 0 0 1 -2.573885,-2.54501 2.5643167,2.5643167 0 0 1 2.535306,-2.58344 2.5643167,2.5643167 0 0 1 2.59296,2.52557" /><path
       id="path4717-2"
       style="fill:#000000;fill-opacity:1;fill-rule:evenodd;stroke:none;stroke-width:0.144258px;stroke-linecap:butt;stroke-linejoin:miter;stroke-opacity:1"
       d="m 107.84447,168.25255 -0.56426,0.54984 3.41842,4.29987 a 3.1945215,3.1945215 0 0 1 0.34441,-1.54402 z" /><path
       id="path4717-0-0"
       style="fill:#000000;fill-opacity:1;fill-rule:evenodd;stroke:none;stroke-width:0.141477px;stroke-linecap:butt;stroke-linejoin:miter;stroke-opacity:1"
       d="m 108.56816,166.69035 -0.53968,0.55318 3.26632,3.90007 a 3.1945215,3.1945215 0 0 1 0.92737,-0.86444 z" /><path
       id="path4717-0-9-2"
       style="fill:#000000;fill-opacity:1;fill-rule:evenodd;stroke:none;stroke-width:0.137852px;stroke-linecap:butt;stroke-linejoin:miter;stroke-opacity:1"
       d="m 110.29846,166.23905 -0.46644,0.58576 2.87796,3.21056 a 3.1945215,3.1945215 0 0 1 0.88436,-0.21358 3.1945215,3.1945215 0 0 1 0.5918,0.002 z" /></g><g
     inkscape:groupmode="layer"
     id="layer5"
     inkscape:label="Sustain"
     style="display:inline" /><g
     inkscape:groupmode="layer"
     id="layer6"
     inkscape:label="Release"
     style="display:inline" /><g
     inkscape:groupmode="layer"
     id="layer2"
     inkscape:label="Boxes"
     style="display:inline"><rect
       style="fill:none;stroke:#000000;stroke-width:0.784314;stroke-linejoin:round;stroke-dasharray:none;stroke-opacity:1"
       id="rect1560-7"
       width="39.215687"
       height="39.215687"
       x="81.392159"
       y="140.39215" /></g></svg>
