<?xml version="1.0" encoding="UTF-8" standalone="no"?>
<!-- Created with Inkscape (http://www.inkscape.org/) -->

<svg
   width="210mm"
   height="297mm"
   viewBox="0 0 210 297"
   version="1.1"
   id="svg5"
   sodipodi:docname="adsr_icons_R.svg"
   inkscape:version="1.2.2 (b0a8486541, 2022-12-01)"
   xml:space="preserve"
   xmlns:inkscape="http://www.inkscape.org/namespaces/inkscape"
   xmlns:sodipodi="http://sodipodi.sourceforge.net/DTD/sodipodi-0.dtd"
   xmlns="http://www.w3.org/2000/svg"
   xmlns:svg="http://www.w3.org/2000/svg"><sodipodi:namedview
     id="namedview7"
     pagecolor="#ffffff"
     bordercolor="#666666"
     borderopacity="1.0"
     inkscape:pageshadow="2"
     inkscape:pageopacity="0.0"
     inkscape:pagecheckerboard="0"
     inkscape:document-units="mm"
     showgrid="false"
     inkscape:zoom="0.90583674"
     inkscape:cx="12.143469"
     inkscape:cy="643.05186"
     inkscape:window-width="1854"
     inkscape:window-height="1011"
     inkscape:window-x="66"
     inkscape:window-y="32"
     inkscape:window-maximized="1"
     inkscape:current-layer="layer2"
     inkscape:showpageshadow="2"
     inkscape:deskcolor="#d1d1d1"
     showguides="true" /><defs
     id="defs2"><inkscape:path-effect
       effect="mirror_symmetry"
       start_point="167.47412,199.82421"
       end_point="167.47412,207.51072"
       center_point="167.47412,203.66746"
       id="path-effect4394"
       is_visible="true"
       lpeversion="1.2"
       lpesatellites=""
       mode="free"
       discard_orig_path="false"
       fuse_paths="false"
       oposite_fuse="false"
       split_items="false"
       split_open="false"
       link_styles="false" /><inkscape:path-effect
       effect="mirror_symmetry"
       start_point="167.41389,204.86826"
       end_point="167.41389,216.78946"
       center_point="167.41389,210.82886"
       id="path-effect4363"
       is_visible="true"
       lpeversion="1.2"
       lpesatellites=""
       mode="free"
       discard_orig_path="false"
       fuse_paths="false"
       oposite_fuse="true"
       split_items="false"
       split_open="false"
       link_styles="false" /><inkscape:path-effect
       effect="mirror_symmetry"
       start_point="167.52168,181.29163"
       end_point="167.52168,194.09611"
       center_point="167.52168,187.69387"
       id="path-effect4361"
       is_visible="true"
       lpeversion="1.2"
       lpesatellites=""
       mode="free"
       discard_orig_path="false"
       fuse_paths="false"
       oposite_fuse="true"
       split_items="false"
       split_open="false"
       link_styles="false" /><inkscape:path-effect
       effect="mirror_symmetry"
       start_point="167.57463,114.48427"
       end_point="167.57463,173.35511"
       center_point="167.57463,143.91969"
       id="path-effect4359"
       is_visible="true"
       lpeversion="1.2"
       lpesatellites=""
       mode="free"
       discard_orig_path="false"
       fuse_paths="false"
       oposite_fuse="true"
       split_items="false"
       split_open="false"
       link_styles="false" /><inkscape:path-effect
       effect="mirror_symmetry"
       start_point="167.57463,114.48427"
       end_point="167.57463,173.35511"
       center_point="167.57463,143.91969"
       id="path-effect4359-7"
       is_visible="true"
       lpeversion="1.2"
       lpesatellites=""
       mode="free"
       discard_orig_path="false"
       fuse_paths="false"
       oposite_fuse="true"
       split_items="false"
       split_open="false"
       link_styles="false" /><inkscape:path-effect
       effect="mirror_symmetry"
       start_point="167.41389,204.86826"
       end_point="167.41389,216.78946"
       center_point="167.41389,210.82886"
       id="path-effect4363-5"
       is_visible="true"
       lpeversion="1.2"
       lpesatellites=""
       mode="free"
       discard_orig_path="false"
       fuse_paths="false"
       oposite_fuse="true"
       split_items="false"
       split_open="false"
       link_styles="false" /><inkscape:path-effect
       effect="mirror_symmetry"
       start_point="167.52168,181.29163"
       end_point="167.52168,194.09611"
       center_point="167.52168,187.69387"
       id="path-effect4361-9"
       is_visible="true"
       lpeversion="1.2"
       lpesatellites=""
       mode="free"
       discard_orig_path="false"
       fuse_paths="false"
       oposite_fuse="true"
       split_items="false"
       split_open="false"
       link_styles="false" /><inkscape:path-effect
       effect="mirror_symmetry"
       start_point="167.47412,199.82421"
       end_point="167.47412,207.51072"
       center_point="167.47412,203.66746"
       id="path-effect4394-2"
       is_visible="true"
       lpeversion="1.2"
       lpesatellites=""
       mode="free"
       discard_orig_path="false"
       fuse_paths="false"
       oposite_fuse="false"
       split_items="false"
       split_open="false"
       link_styles="false" /></defs><g
     inkscape:label="Layer 1"
     inkscape:groupmode="layer"
     id="layer1"
     style="display:inline" /><g
     inkscape:groupmode="layer"
     id="layer3"
     inkscape:label="Attack"
     style="display:inline" /><g
     inkscape:groupmode="layer"
     id="layer4"
     inkscape:label="Decay"
     style="display:inline" /><g
     inkscape:groupmode="layer"
     id="layer5"
     inkscape:label="Sustain"
     style="display:inline" /><g
     inkscape:groupmode="layer"
     id="layer6"
     inkscape:label="Release"
     style="display:inline"><path
       style="fill:#000000;fill-opacity:1;stroke:#000000;stroke-width:0.5;stroke-dasharray:none;stroke-opacity:1"
       d="m 94.862296,203.33323 c 0.46597,-0.40013 3.41181,-2.03747 6.703844,-3.5937 1.63628,-0.24619 1.96351,-0.061 2.71277,-0.015 0.40926,0.15857 0.55327,-1.9279 0.78319,-2.30776 0.76583,-1.56594 1.13581,-1.32678 2.66823,-4.03407 0.34312,-0.58574 0.67326,-1.12926 1.00859,-1.68962 l 0.28784,-0.12474 c -0.0991,0.98664 -0.41925,1.6008 -1.35242,3.90464 -0.21594,0.5064 -0.60141,1.01077 -1.04642,1.69138 -0.13879,0.20902 -0.36793,1.2464 -0.21139,1.91493 0.0677,0.24723 0.31379,0.14681 0.70034,0.52613 0.12503,0.12997 0.17565,0.32307 0.0547,0.66168 0.24586,0.16299 0.21428,0.38914 0.26275,0.59192 -0.13178,-0.19014 -0.38752,-0.34095 -0.43931,-0.32477 -0.46081,0.25004 -0.30046,0.80764 -3.02264,0.58154 l -0.17289,0.20916 c -0.18878,-0.0327 -0.24095,0.0365 -0.615,-0.1343 -0.62142,0.36242 -1.20623,0.60861 -1.75981,0.75568 0.50278,-0.40855 1.53637,-0.86717 2.05391,-1.54179 -1.02033,-0.36918 -1.75622,-0.17761 -1.93013,-0.17747 -0.73365,0.009 -5.606554,2.49772 -6.686234,3.10613 z"
       id="path611-3-6"
       sodipodi:nodetypes="ccccccccccccccccccccc" /><path
       style="fill:#000000;fill-opacity:1;stroke:#000000;stroke-width:0.5;stroke-dasharray:none;stroke-opacity:1"
       d="m 106.95257,187.28912 c 1.83529,-0.80169 3.67945,-1.55683 5.66147,-1.58932 0.44003,1.20053 1.09228,0.6773 2.07884,1.63798 -0.14336,-0.75889 -0.0542,-1.21757 -0.008,-1.73237 1.14895,-1.49309 3.39088,-1.33295 4.49261,-2.74167 -2.44362,0.68597 -3.57598,0.19901 -5.39014,1.99511 -0.0932,-0.13602 -0.24861,-0.2754 -0.12613,-0.60635 -0.46628,0.0957 -0.99402,0.18201 -1.47927,0.76424 -2.76271,0.39589 -3.99309,1.30637 -5.22893,2.27239 z"
       id="path905-7-2"
       sodipodi:nodetypes="ccccccccc" /><path
       style="fill:#000000;fill-opacity:1;stroke:#000000;stroke-width:0.5;stroke-dasharray:none;stroke-opacity:1"
       d="m 97.335516,209.7049 c -0.53347,2.38696 0.0267,4.4292 0.76886,6.10921 0.55872,1.12869 1.43002,2.48212 1.61208,2.4643 -0.11822,-0.46333 -0.45637,-1.20544 -0.37713,-1.29506 0.21453,0.16071 0.781614,2.21074 1.028754,2.29126 -0.385654,-5.37291 -2.167944,-7.58283 -2.198144,-8.46042 -0.0428,-0.38813 0.0444,-0.55952 0.0958,-0.79062 0.9085,0.48447 1.50283,-0.12576 1.882814,-0.44402 0.28663,0.0228 0.50795,0.15621 1.00362,-0.17464 -0.0747,-0.13352 -0.14406,-0.2655 -0.32248,-0.42904 0.0768,-0.47898 -0.0424,-0.83516 -0.28488,-1.114 2.17048,-1.21841 3.46399,-0.6131 4.54579,-0.37486 0.56322,0.097 2.00004,0.50542 3.55566,0.95617 l -0.10572,-0.22498 c -2.90439,-0.93817 -5.62213,-2.54538 -6.737,-2.23965 -1.08311,0.2284 -1.67223,0.61901 -2.318424,0.99088 -1.40196,0.78972 -1.67921,0.81227 -2.01301,0.79349 -0.71232,0.79258 -0.87347,1.42734 -1.0425,2.37773 l 0.43549,0.01 z"
       id="path1353-5-9"
       sodipodi:nodetypes="cccccccccccccccccccc" /><path
       style="fill:#000000;fill-opacity:1;stroke:#000000;stroke-width:0.5;stroke-dasharray:none;stroke-opacity:1"
       d="m 82.776536,203.38933 c 1.1538,-0.0135 3.50886,-1.84667 5.00949,-2.47221 1.28313,-0.79342 2.33325,-1.70634 2.7648,-2.22242 0.18675,-0.63226 0.55049,-1.12048 1.01375,-1.62698 1.46945,-3.61286 3.46041,-7.59092 4.18136,-9.16378 0.1304,-0.22959 0.14213,-0.21986 0.35959,-0.23522 2.31654,4.82444 -1.92123,5.1966 -3.04965,9.7188 0.3262,0.18103 0.39555,0.39644 0.32922,0.63001 0.11878,0.0361 0.32153,0.18675 0.31348,0.23777 -0.0183,0.0519 -0.28693,-0.031 -0.40277,0.0966 -0.91524,0.9199 -1.13837,1.54383 -2.55939,1.04087 l -3.85765,3.39658 c -0.96575,0.389 -1.42044,0.5305 -2.26598,0.58104 -0.54494,-0.0651 -1.56937,0.39247 -2.03719,0.22152 -0.011,-0.0801 0.13632,-0.18779 0.20094,-0.20258 z"
       id="path1357-5-2"
       sodipodi:nodetypes="ccccccccccccccc" /></g><g
     inkscape:groupmode="layer"
     id="layer2"
     inkscape:label="Boxes"
     style="display:inline"><rect
       style="fill:none;stroke:#000000;stroke-width:0.784314;stroke-linejoin:round;stroke-dasharray:none;stroke-opacity:1"
       id="rect1560-7-9"
       width="39.215687"
       height="39.215687"
       x="81.392159"
       y="181.39215" /></g></svg>
