<?xml version="1.0" encoding="UTF-8" standalone="no"?>
<!-- Created with Inkscape (http://www.inkscape.org/) -->

<svg
   width="210mm"
   height="297mm"
   viewBox="0 0 210 297"
   version="1.1"
   id="svg5"
   sodipodi:docname="adsr_icons_R_wide.svg"
   inkscape:version="1.2.2 (b0a8486541, 2022-12-01)"
   xml:space="preserve"
   xmlns:inkscape="http://www.inkscape.org/namespaces/inkscape"
   xmlns:sodipodi="http://sodipodi.sourceforge.net/DTD/sodipodi-0.dtd"
   xmlns="http://www.w3.org/2000/svg"
   xmlns:svg="http://www.w3.org/2000/svg"><sodipodi:namedview
     id="namedview7"
     pagecolor="#ffffff"
     bordercolor="#666666"
     borderopacity="1.0"
     inkscape:pageshadow="2"
     inkscape:pageopacity="0.0"
     inkscape:pagecheckerboard="0"
     inkscape:document-units="mm"
     showgrid="false"
     inkscape:zoom="1.2810466"
     inkscape:cx="146.3647"
     inkscape:cy="660.00721"
     inkscape:window-width="1854"
     inkscape:window-height="1011"
     inkscape:window-x="66"
     inkscape:window-y="32"
     inkscape:window-maximized="1"
     inkscape:current-layer="layer2"
     inkscape:showpageshadow="2"
     inkscape:deskcolor="#d1d1d1"
     showguides="true" /><defs
     id="defs2"><inkscape:path-effect
       effect="mirror_symmetry"
       start_point="167.47412,199.82421"
       end_point="167.47412,207.51072"
       center_point="167.47412,203.66746"
       id="path-effect4394"
       is_visible="true"
       lpeversion="1.2"
       lpesatellites=""
       mode="free"
       discard_orig_path="false"
       fuse_paths="false"
       oposite_fuse="false"
       split_items="false"
       split_open="false"
       link_styles="false" /><inkscape:path-effect
       effect="mirror_symmetry"
       start_point="167.41389,204.86826"
       end_point="167.41389,216.78946"
       center_point="167.41389,210.82886"
       id="path-effect4363"
       is_visible="true"
       lpeversion="1.2"
       lpesatellites=""
       mode="free"
       discard_orig_path="false"
       fuse_paths="false"
       oposite_fuse="true"
       split_items="false"
       split_open="false"
       link_styles="false" /><inkscape:path-effect
       effect="mirror_symmetry"
       start_point="167.52168,181.29163"
       end_point="167.52168,194.09611"
       center_point="167.52168,187.69387"
       id="path-effect4361"
       is_visible="true"
       lpeversion="1.2"
       lpesatellites=""
       mode="free"
       discard_orig_path="false"
       fuse_paths="false"
       oposite_fuse="true"
       split_items="false"
       split_open="false"
       link_styles="false" /><inkscape:path-effect
       effect="mirror_symmetry"
       start_point="167.57463,114.48427"
       end_point="167.57463,173.35511"
       center_point="167.57463,143.91969"
       id="path-effect4359"
       is_visible="true"
       lpeversion="1.2"
       lpesatellites=""
       mode="free"
       discard_orig_path="false"
       fuse_paths="false"
       oposite_fuse="true"
       split_items="false"
       split_open="false"
       link_styles="false" /><inkscape:path-effect
       effect="mirror_symmetry"
       start_point="167.57463,114.48427"
       end_point="167.57463,173.35511"
       center_point="167.57463,143.91969"
       id="path-effect4359-7"
       is_visible="true"
       lpeversion="1.2"
       lpesatellites=""
       mode="free"
       discard_orig_path="false"
       fuse_paths="false"
       oposite_fuse="true"
       split_items="false"
       split_open="false"
       link_styles="false" /><inkscape:path-effect
       effect="mirror_symmetry"
       start_point="167.41389,204.86826"
       end_point="167.41389,216.78946"
       center_point="167.41389,210.82886"
       id="path-effect4363-5"
       is_visible="true"
       lpeversion="1.2"
       lpesatellites=""
       mode="free"
       discard_orig_path="false"
       fuse_paths="false"
       oposite_fuse="true"
       split_items="false"
       split_open="false"
       link_styles="false" /><inkscape:path-effect
       effect="mirror_symmetry"
       start_point="167.52168,181.29163"
       end_point="167.52168,194.09611"
       center_point="167.52168,187.69387"
       id="path-effect4361-9"
       is_visible="true"
       lpeversion="1.2"
       lpesatellites=""
       mode="free"
       discard_orig_path="false"
       fuse_paths="false"
       oposite_fuse="true"
       split_items="false"
       split_open="false"
       link_styles="false" /><inkscape:path-effect
       effect="mirror_symmetry"
       start_point="167.47412,199.82421"
       end_point="167.47412,207.51072"
       center_point="167.47412,203.66746"
       id="path-effect4394-2"
       is_visible="true"
       lpeversion="1.2"
       lpesatellites=""
       mode="free"
       discard_orig_path="false"
       fuse_paths="false"
       oposite_fuse="false"
       split_items="false"
       split_open="false"
       link_styles="false" /></defs><g
     inkscape:label="Layer 1"
     inkscape:groupmode="layer"
     id="layer1"
     style="display:inline" /><g
     inkscape:groupmode="layer"
     id="layer3"
     inkscape:label="Attack"
     style="display:inline" /><g
     inkscape:groupmode="layer"
     id="layer4"
     inkscape:label="Decay"
     style="display:inline" /><g
     inkscape:groupmode="layer"
     id="layer5"
     inkscape:label="Sustain"
     style="display:inline" /><g
     inkscape:groupmode="layer"
     id="layer6"
     inkscape:label="Release"
     style="display:inline"><path
       style="fill:#000000;fill-opacity:1;stroke:#000000;stroke-width:0.5;stroke-dasharray:none;stroke-opacity:1"
       d="m 94.862296,203.33323 c 0.46597,-0.40013 3.41181,-2.03747 6.703844,-3.5937 1.63628,-0.24619 1.96351,-0.061 2.71277,-0.015 0.40926,0.15857 0.55327,-1.9279 0.78319,-2.30776 0.76583,-1.56594 1.13581,-1.32678 2.66823,-4.03407 0.34312,-0.58574 0.67326,-1.12926 1.00859,-1.68962 l 0.28784,-0.12474 c -0.0991,0.98664 -0.41925,1.6008 -1.35242,3.90464 -0.21594,0.5064 -0.60141,1.01077 -1.04642,1.69138 -0.13879,0.20902 -0.36793,1.2464 -0.21139,1.91493 0.0677,0.24723 0.31379,0.14681 0.70034,0.52613 0.12503,0.12997 0.17565,0.32307 0.0547,0.66168 0.24586,0.16299 0.21428,0.38914 0.26275,0.59192 -0.13178,-0.19014 -0.38752,-0.34095 -0.43931,-0.32477 -0.46081,0.25004 -0.30046,0.80764 -3.02264,0.58154 l -0.17289,0.20916 c -0.18878,-0.0327 -0.24095,0.0365 -0.615,-0.1343 -0.62142,0.36242 -1.20623,0.60861 -1.75981,0.75568 0.50278,-0.40855 1.53637,-0.86717 2.05391,-1.54179 -1.02033,-0.36918 -1.75622,-0.17761 -1.93013,-0.17747 -0.73365,0.009 -5.606554,2.49772 -6.686234,3.10613 z"
       id="path611-3-6"
       sodipodi:nodetypes="ccccccccccccccccccccc" /><path
       style="fill:#000000;fill-opacity:1;stroke:#000000;stroke-width:0.5;stroke-dasharray:none;stroke-opacity:1"
       d="m 106.63598,187.65408 c 1.83529,-0.80169 3.67945,-1.55683 5.66147,-1.58932 0.44003,1.20053 1.09228,0.6773 2.07884,1.63798 -0.14336,-0.75889 -0.0542,-1.21757 -0.008,-1.73237 1.14895,-1.49309 3.39088,-1.33295 4.49261,-2.74167 -2.44362,0.68597 -3.57598,0.19901 -5.39014,1.99511 -0.0932,-0.13602 -0.24861,-0.2754 -0.12613,-0.60635 -0.46628,0.0957 -0.99402,0.18201 -1.47927,0.76424 -2.76271,0.39589 -3.99309,1.30637 -5.22893,2.27239 z"
       id="path905-7-2"
       sodipodi:nodetypes="ccccccccc" /><path
       style="fill:#000000;fill-opacity:1;stroke:#000000;stroke-width:0.5;stroke-dasharray:none;stroke-opacity:1"
       d="m 97.335516,209.7049 c -0.53347,2.38696 0.0267,4.4292 0.76886,6.10921 0.55872,1.12869 1.43002,2.48212 1.61208,2.4643 -0.11822,-0.46333 -0.45637,-1.20544 -0.37713,-1.29506 0.21453,0.16071 0.781614,2.21074 1.028754,2.29126 -0.385654,-5.37291 -2.167944,-7.58283 -2.198144,-8.46042 -0.0428,-0.38813 0.0444,-0.55952 0.0958,-0.79062 0.9085,0.48447 1.50283,-0.12576 1.882814,-0.44402 0.28663,0.0228 0.50795,0.15621 1.00362,-0.17464 -0.0747,-0.13352 -0.14406,-0.2655 -0.32248,-0.42904 0.0768,-0.47898 -0.0424,-0.83516 -0.28488,-1.114 2.17048,-1.21841 3.46399,-0.6131 4.54579,-0.37486 0.56322,0.097 2.00004,0.50542 3.55566,0.95617 l -0.10572,-0.22498 c -2.90439,-0.93817 -5.62213,-2.54538 -6.737,-2.23965 -1.08311,0.2284 -1.67223,0.61901 -2.318424,0.99088 -1.40196,0.78972 -1.67921,0.81227 -2.01301,0.79349 -0.71232,0.79258 -0.87347,1.42734 -1.0425,2.37773 l 0.43549,0.01 z"
       id="path1353-5-9"
       sodipodi:nodetypes="cccccccccccccccccccc" /><path
       style="fill:#000000;fill-opacity:1;stroke:#000000;stroke-width:0.5;stroke-dasharray:none;stroke-opacity:1"
       d="m 82.776536,203.38933 c 1.1538,-0.0135 3.50886,-1.84667 5.00949,-2.47221 1.28313,-0.79342 2.33325,-1.70634 2.7648,-2.22242 0.18675,-0.63226 0.55049,-1.12048 1.01375,-1.62698 1.46945,-3.61286 3.46041,-7.59092 4.18136,-9.16378 0.1304,-0.22959 0.14213,-0.21986 0.35959,-0.23522 2.31654,4.82444 -1.92123,5.1966 -3.04965,9.7188 0.3262,0.18103 0.39555,0.39644 0.32922,0.63001 0.11878,0.0361 0.32153,0.18675 0.31348,0.23777 -0.0183,0.0519 -0.28693,-0.031 -0.40277,0.0966 -0.91524,0.9199 -1.13837,1.54383 -2.55939,1.04087 l -3.85765,3.39658 c -0.96575,0.389 -1.42044,0.5305 -2.26598,0.58104 -0.54494,-0.0651 -1.56937,0.39247 -2.03719,0.22152 -0.011,-0.0801 0.13632,-0.18779 0.20094,-0.20258 z"
       id="path1357-5-2"
       sodipodi:nodetypes="ccccccccccccccc" /></g><g
     inkscape:groupmode="layer"
     id="layer2"
     inkscape:label="Boxes"
     style="display:inline"><path
       id="rect1560-7-9"
       style="fill:none;stroke:#000000;stroke-width:0.784314;stroke-linejoin:round;stroke-dasharray:none;stroke-opacity:1"
       d="M 81.392157 213.49922 L 81.392159 181.39215 L 81.392159 181.39215 L 120.60785 181.39215 L 120.60785 220.60784 L 81.392159 220.60784 L 81.392157 217.17497 " /><path
       style="fill:#000002;fill-opacity:1;stroke:#000000;stroke-width:0.25;stroke-dasharray:none;stroke-opacity:1"
       d="m 68.36395,219.37045 c -0.467355,1.36834 -0.270103,3.51516 0.04872,5.8044 -1.131194,0.37402 0.725952,6.2246 1.299128,6.54304 -0.52691,1.22511 -0.929431,2.35079 -0.476088,2.79236 2.363322,-2.0866 2.831375,-3.58721 3.900226,-5.27359 1.081946,-3.23485 -0.70237,-5.2378 -0.342939,-9.55749 1.587995,-0.48519 2.849669,-1.42047 4.085583,-2.39127 0.365664,-0.11652 1.137754,0.0728 1.375128,0.0163 0.03284,-0.24511 -0.638869,-0.64796 -1.318287,-0.60171 -0.01823,-0.0599 -0.05401,-0.0661 -0.06927,-0.14972 -0.886383,0.10682 -4.641899,0.54088 -5.753724,0.34804 -0.0299,-0.0719 -1.05e-4,0.002 -0.03244,-0.0879 1.781937,0.27352 8.934607,-0.73898 10.049643,-1.21728 3.106757,1.17062 4.914457,-0.0634 6.319135,-2.19882 -2.213185,0.28767 -4.693705,2.0684 -5.674791,1.86003 -3.650609,-1.00664 -6.304982,-0.71244 -7.000168,-0.42956 -2.411236,1.24369 -3.236287,1.08423 -4.327642,1.16035 -0.880973,0.15606 -0.974135,1.94798 -2.835824,2.09643 -0.596389,-0.12123 -1.080464,0.2439 -1.331623,0.56356 0.763266,-0.0442 1.741991,-0.16877 1.719173,0.0804 -0.552335,0.0978 -0.973358,0.84683 -2.852557,1.39145 0.170548,0.11198 0.19795,0.327 0.599311,0.27283 0.881034,-0.34714 2.37769,-1.20086 2.619318,-1.02185 z"
       id="path1355-3"
       sodipodi:nodetypes="cccccccccccccccccccccccc" /><path
       style="fill:#000005;fill-opacity:1;stroke-width:0.264583"
       d="m 44.838135,211.80232 c -0.20875,0.0687 -0.60759,0.38112 -0.39643,0.63249 0.49633,0.5556 2.21962,1.14986 3.75204,0.56961 0.24499,0.0287 -0.0839,0.36781 -0.40676,0.76586 3.09032,-0.86665 6.41881,-0.53288 9.70334,-0.0838 3.0681,0.0135 3.18702,-1.98678 6.16469,-2.2133 0,0 -0.0269,-0.11347 -0.23451,-0.29905 -0.66748,-0.0926 -0.94859,-0.43028 -2.64522,-0.57623 -0.6814,-0.0743 -1.2967,0.0834 -2.20356,-0.38202 -0.45264,-1.20068 2.76996,-4.38321 5.38562,-6.29381 4.66456,-3.96559 3.08617,-4.97316 4.21641,-7.47085 l -0.58836,-1.24473 c -1.91986,3.28417 -6.35614,7.84733 -7.66475,8.61494 -2.85844,1.82027 -4.50519,4.64892 -6.38183,6.81387 -1.2882,0.79244 -2.51007,0.63751 -3.71279,0.20924 -0.14745,0.2943 -0.22484,0.60579 -0.5365,0.85977 -0.44173,0.40327 -1.75949,0.7531 -2.49018,0.89066 -0.51894,0.2724 -1.28729,-0.33056 -1.96121,-0.79264 z"
       id="path903-6"
       sodipodi:nodetypes="cccccccccccccccccc" /><path
       style="fill:#000000;fill-opacity:1;stroke:#000000;stroke-width:0.295622;stroke-dasharray:none;stroke-opacity:1"
       d="m 126.50723,192.15666 c -0.005,0.0992 -3.58427,2.52261 -3.52423,2.59899 0.12094,0.0618 0.92096,-0.49064 3.59941,-0.98291 0.1365,-0.026 1.58257,-1.60243 1.69716,-1.65662 0.15341,-0.0343 1.51723,-0.45397 2.1478,-1.01162 0.40698,-0.0618 0.57864,-0.19922 0.836,-0.30906 0.21878,0.007 0.61368,0.0493 0.62521,0.0132 -0.0206,-0.0416 -0.19391,-0.16321 -0.52991,-0.36987 -0.52126,-0.49455 -0.74077,-0.35907 -1.03647,-0.36962 -0.49178,-0.56198 0.37905,-2.04644 0.66682,-3.13617 0.79561,-2.39739 0.53775,-2.89204 0.25056,-3.33377 -0.33837,-1.4615 -0.52517,-1.37027 -0.73093,-1.47332 -0.24435,-0.441 -0.27095,-0.30017 -0.35278,-0.30688 -0.0205,0.2681 0.14406,0.74566 0.0873,0.80268 -0.0463,-0.0335 -0.21266,-0.57204 -0.37274,-0.52165 0.001,0.63288 0.32244,1.52445 0.28597,1.64348 -0.14009,-0.0286 -0.34425,-1.17992 -0.54962,-1.09024 -0.21515,0.34355 -0.0263,0.77238 0.0406,1.17543 -0.0654,-0.001 -0.21932,-0.35949 -0.30373,-0.26396 -1.19648,2.87965 -1.78609,6.96914 -1.90959,7.04743 0.0474,0.21516 -0.41956,0.34035 -1.307,0.392 -0.41529,0.34698 -0.77372,0.7111 -0.92186,1.13853 -0.50619,0.6786 -0.37991,0.81017 0.19228,0.55606 0.38043,-0.18878 1.19454,-0.71482 1.10977,-0.54178 z"
       id="path6405"
       sodipodi:nodetypes="cccccccccccccccccccccccc" /><path
       style="fill:#000000;fill-opacity:1;stroke:#000000;stroke-width:0.288361;stroke-dasharray:none;stroke-opacity:1"
       d="m 142.46461,185.1045 c 1.1363,-0.0443 1.39855,0.005 1.35598,0.0849 0.0479,-0.1931 0.73402,-0.4536 1.28666,-0.7 0.4329,-0.49072 0.41398,-0.81632 0.39122,-1.14049 l -0.1651,-0.40341 c -0.0181,-0.14795 0.2084,-0.91707 1.30914,-2.62477 l 0.51465,-0.86864 c 1.27925,-1.67306 1.0144,-3.00118 0.78273,-3.03352 -0.0802,-0.58747 -0.16584,-0.72034 -0.25734,-0.37201 -0.22362,0.22983 -0.16038,0.62231 -0.23525,0.93647 -0.24453,0.25415 -0.63516,1.58247 -0.95787,2.41143 -0.0977,0.25207 -0.13783,0.42061 -0.30146,0.76842 -1.43837,1.72644 -1.22463,2.65107 -1.32411,2.7604 -0.52226,0.0511 -0.64749,0.30088 -0.84992,0.51202 -0.17146,0.11269 -1.05076,0.0278 -1.70428,0.112 -0.65352,0.0842 -1.6041,0.26781 -2.20488,0.42544 -2.19738,0.48475 -3.04574,0.13354 -3.45841,-0.0347 -0.28002,-0.10462 -0.42381,-0.15799 -0.48399,-0.10785 1.0381,0.53013 2.50042,0.73013 3.65782,0.47262 0.031,0.36561 2.73317,-0.37706 2.79944,-0.37304 0.17769,0.0991 0.76187,0.1854 1.23685,0.19125 -0.50931,0.75488 -0.93489,0.72135 -1.39188,0.98354 z"
       id="path11285"
       sodipodi:nodetypes="cccccccccccccccccccccc" /></g></svg>
